<?xml version="1.0" encoding="UTF-8"?>
<svg version="1.1" xmlns="http://www.w3.org/2000/svg" width="808" height="309">
<path d="M0 0 C266.64 0 533.28 0 808 0 C808 101.97 808 203.94 808 309 C541.36 309 274.72 309 0 309 C0 207.03 0 105.06 0 0 Z " fill="#F4F4F4" transform="translate(0,0)"/>
<path d="M0 0 C5.54948861 3.44068294 11.50336006 7.24823524 13.125 13.9375 C13.62128906 13.50179687 14.11757812 13.06609375 14.62890625 12.6171875 C16.0492893 11.37199401 17.47126367 10.12861418 18.89453125 8.88671875 C20.29223512 7.66525775 21.68609743 6.43937142 23.07421875 5.20703125 C23.66847656 4.68496094 24.26273437 4.16289063 24.875 3.625 C25.40609375 3.15449219 25.9371875 2.68398437 26.484375 2.19921875 C32.6198081 -2.51922147 40.71379008 -2.00405709 48.125 -1.0625 C55.52232284 1.27931552 59.84348502 6.10721938 63.73046875 12.6328125 C65.34568471 16.46046712 65.62306463 19.78784891 65.5625 23.875 C65.55114014 24.9422229 65.55114014 24.9422229 65.53955078 26.03100586 C65.36198955 31.6514022 64.62789379 34.60497347 61.125 38.9375 C60.65449219 39.52660156 60.18398437 40.11570313 59.69921875 40.72265625 C56.72308494 44.34477259 53.48674501 47.67462984 50.125 50.9375 C50.846875 51.164375 51.56875 51.39125 52.3125 51.625 C57.77190324 54.17272151 62.43391575 59.55533149 65.125 64.9375 C65.33099556 67.45653137 65.44899396 69.9150194 65.5 72.4375 C65.55607422 73.44296875 65.55607422 73.44296875 65.61328125 74.46875 C65.75738522 82.92284973 61.80074389 89.45906664 56.09375 95.45703125 C54.61692449 96.90118363 53.12712998 98.33218647 51.625 99.75 C50.87863281 100.47380859 50.13226563 101.19761719 49.36328125 101.94335938 C47.92015191 103.34179001 46.47240812 104.73547842 45.01953125 106.1237793 C42.06902351 108.94843419 39.20034437 111.85179332 36.32617188 114.75366211 C34.2607302 116.83738424 32.19291432 118.91873199 30.125 121 C29.42632812 121.70705078 28.72765625 122.41410156 28.0078125 123.14257812 C24.51904416 126.64780292 21.00786004 129.86701138 17.125 132.9375 C16.00859081 134.1793772 14.9233473 135.45015524 13.875 136.75 C7.18148006 144.53485472 0.69288961 149.40783148 -9.75 150.25 C-17.92913783 149.98105349 -24.30183795 146.86573885 -29.875 140.9375 C-32.0269437 137.70958445 -32.07586443 136.65349191 -31.875 132.9375 C-32.205 132.9375 -32.535 132.9375 -32.875 132.9375 C-34.1992101 134.2850162 -35.52037617 135.63568514 -36.82446289 137.00268555 C-43.61894678 144.09951214 -50.10724283 149.93656764 -60.5 150.25 C-67.4121264 150.16927444 -72.5624008 147.94845583 -77.75 143.4375 C-78.45125 142.6125 -79.1525 141.7875 -79.875 140.9375 C-80.41125 140.339375 -80.9475 139.74125 -81.5 139.125 C-85.48240987 132.78934794 -87.06914454 126.33673206 -85.875 118.9375 C-83.66722306 112.69576026 -80.63655717 108.50065895 -75.875 103.9375 C-74.61594175 102.68354259 -73.35963567 101.42681831 -72.10546875 100.16796875 C-68.36197917 96.42447917 -64.61848958 92.68098958 -60.875 88.9375 C-61.47828125 89.35902344 -62.0815625 89.78054687 -62.703125 90.21484375 C-63.50234375 90.76269531 -64.3015625 91.31054688 -65.125 91.875 C-65.91390625 92.42027344 -66.7028125 92.96554688 -67.515625 93.52734375 C-69.74566376 94.86019804 -71.29910871 95.6761777 -73.875 95.9375 C-79.75349646 92.18526822 -83.41754277 86.61427731 -85.4921875 79.95703125 C-86.67687511 73.70719966 -86.64579665 67.67813318 -83.35816956 62.10922241 C-77.94275508 54.17973321 -70.51791644 47.42211675 -63.75390625 40.6484375 C-62.92793442 39.81913727 -62.10196259 38.98983704 -61.2509613 38.13540649 C-59.52546129 36.40489022 -57.79864763 34.67568284 -56.07055664 32.94775391 C-53.41460271 30.2895836 -50.76678565 27.62347468 -48.11914062 24.95703125 C-46.43538413 23.27034575 -44.75115668 21.58413021 -43.06640625 19.8984375 C-42.2737587 19.09860443 -41.48111115 18.29877136 -40.66444397 17.47470093 C-39.56706154 16.38193344 -39.56706154 16.38193344 -38.44750977 15.26708984 C-37.80403091 14.62218597 -37.16055206 13.9772821 -36.49757385 13.31283569 C-34.875 11.9375 -34.875 11.9375 -32.875 11.9375 C-32.63523438 11.35226563 -32.39546875 10.76703125 -32.1484375 10.1640625 C-30.62192911 7.49501409 -28.94849017 6.15903578 -26.5 4.3125 C-25.72914062 3.72210938 -24.95828125 3.13171875 -24.1640625 2.5234375 C-17.31952157 -2.21868472 -7.91682781 -2.97569862 0 0 Z " fill="#FC3B2C" transform="translate(151.875,72.0625)"/>
<path d="M0 0 C5.61 0 11.22 0 17 0 C17.33773438 2.69929688 17.67546875 5.39859375 18.0234375 8.1796875 C18.35687816 10.82432959 18.69156446 13.46881129 19.02636719 16.11328125 C19.25650829 17.9363598 19.48537558 19.75959967 19.71289062 21.58300781 C21.29430306 34.36873573 21.29430306 34.36873573 23.63818359 47.03076172 C24.19704497 50.07244583 24.1906048 53.04157461 24.125 56.125 C24.10695313 57.24132812 24.08890625 58.35765625 24.0703125 59.5078125 C24.04710937 60.33023438 24.02390625 61.15265625 24 62 C24.99 62 25.98 62 27 62 C26.95359375 61.43796875 26.9071875 60.8759375 26.859375 60.296875 C26.5426211 52.92103419 27.82492597 46.22056361 29.36401367 39.05859375 C30.90492502 31.79709117 31.99250119 24.52469456 32.87231445 17.15478516 C33.65062023 11.09864912 34.52202032 4.47797968 39 0 C42.10431665 -0.44693579 45.24217433 -0.32408589 48.375 -0.3125 C49.23867188 -0.32861328 50.10234375 -0.34472656 50.9921875 -0.36132812 C54.50683862 -0.36404005 57.27826529 -0.30581979 60.53515625 1.07421875 C62.73888166 3.97138308 62.7510342 6.52345294 63.0625 10.125 C63.2070568 11.57851618 63.35562557 13.0316379 63.5078125 14.484375 C63.62237793 15.60682617 63.62237793 15.60682617 63.73925781 16.75195312 C64.1532306 20.32111175 64.78740345 23.84242326 65.4375 27.375 C65.56302246 28.06988525 65.68854492 28.76477051 65.81787109 29.48071289 C66.07630758 30.91128497 66.33559537 32.3417035 66.59570312 33.77197266 C67.3084023 37.69956483 68.0061507 41.62934897 68.6875 45.5625 C68.81890381 46.28808105 68.95030762 47.01366211 69.08569336 47.76123047 C69.91160078 52.57246011 70.1153271 57.11781925 70 62 C70.99 62 71.98 62 73 62 C72.95866943 60.8860083 72.95866943 60.8860083 72.91650391 59.74951172 C72.72473793 50.315491 73.89907244 41.40432607 75.375 32.125 C75.7119154 29.95014293 76.04605527 27.77487191 76.37994385 25.59954834 C76.59895822 24.17411738 76.81911493 22.74886143 77.04046631 21.3237915 C78.13676688 14.229369 79.0744887 7.11865234 80 0 C85.61 0 91.22 0 97 0 C96.51900013 7.98459784 95.68470545 15.83303284 94.5625 23.75 C94.44028076 24.62422607 94.31806152 25.49845215 94.19213867 26.39916992 C93.61282131 30.38512932 92.96370367 34.31753181 92.0546875 38.2421875 C91.15962185 42.10730185 90.46975888 45.98518523 89.81640625 49.8984375 C89.61080078 51.11917969 89.40519531 52.33992188 89.19335938 53.59765625 C88.76908244 56.13806363 88.35254393 58.67977431 87.94335938 61.22265625 C87.73646484 62.43566406 87.52957031 63.64867187 87.31640625 64.8984375 C87.04485718 66.54851807 87.04485718 66.54851807 86.76782227 68.23193359 C85.95855265 71.14942133 85.50460066 72.33145364 83 74 C80.77929688 74.38818359 80.77929688 74.38818359 78.21875 74.3984375 C77.29449219 74.40230469 76.37023437 74.40617187 75.41796875 74.41015625 C74.45503906 74.39855469 73.49210937 74.38695312 72.5 74.375 C71.53707031 74.38660156 70.57414062 74.39820313 69.58203125 74.41015625 C68.19564453 74.40435547 68.19564453 74.40435547 66.78125 74.3984375 C65.93626953 74.39505371 65.09128906 74.39166992 64.22070312 74.38818359 C61.52023673 73.91613637 60.6589181 73.14200075 59 71 C55.08314101 60.06307007 54.24900588 47.53329536 52.49121094 36.10400391 C51.83560069 31.9611467 51.11349677 27.83044937 50.3815918 23.70043945 C49.82479768 19.76013254 49.86756752 15.97297449 50 12 C49.01 12 48.02 12 47 12 C47.02066528 12.83966309 47.02066528 12.83966309 47.04174805 13.69628906 C47.11362494 18.83035304 46.74557174 23.69560811 45.8125 28.75 C45.53885909 30.30074537 45.26543879 31.85152968 44.9921875 33.40234375 C44.83717773 34.26843262 44.68216797 35.13452148 44.52246094 36.02685547 C43.91301842 39.49498208 43.33478231 42.96773186 42.7578125 46.44140625 C42.31786472 49.06513039 41.87776031 51.68882828 41.4375 54.3125 C41.22778564 55.58254883 41.01807129 56.85259766 40.80200195 58.16113281 C40.59792725 59.3622168 40.39385254 60.56330078 40.18359375 61.80078125 C40.00368896 62.87497314 39.82378418 63.94916504 39.63842773 65.0559082 C39.02042525 67.90580953 38.26828576 70.37534081 37 73 C33.23845432 74.88077284 28.70176726 74.22802645 24.5625 74.25 C23.59505859 74.270625 22.62761719 74.29125 21.63085938 74.3125 C20.23770508 74.32023437 20.23770508 74.32023437 18.81640625 74.328125 C17.96506104 74.3374707 17.11371582 74.34681641 16.23657227 74.35644531 C13.49037667 73.91878069 12.65032711 73.2036494 11 71 C10.12109375 67.8828125 10.12109375 67.8828125 9.4375 64.125 C9.31310547 63.4537207 9.18871094 62.78244141 9.06054688 62.09082031 C7.90412003 55.74844821 6.94394368 49.37686394 6 43 C5.52790443 39.91554846 5.04647682 36.83260763 4.5625 33.75 C4.43705811 32.94691406 4.31161621 32.14382812 4.18237305 31.31640625 C3.54587872 27.28540988 2.87740621 23.26395739 2.140625 19.25 C1.93264282 18.11353027 1.93264282 18.11353027 1.72045898 16.95410156 C1.45744682 15.53311184 1.18912691 14.11308927 0.91430664 12.69433594 C0.09365665 8.26977037 0 4.62050975 0 0 Z " fill="#1C1C1C" transform="translate(254,111)"/>
<path d="M0 0 C5.28 0 10.56 0 16 0 C16 24.75 16 49.5 16 75 C11.71 75 7.42 75 3 75 C2 74 2 74 1.9375 70.9375 C1.958125 69.968125 1.97875 68.99875 2 68 C0.948125 68.78375 -0.10375 69.5675 -1.1875 70.375 C-6.54252261 74.36501684 -11.31286307 75.38214092 -17.9375 75.4375 C-18.62779297 75.47037109 -19.31808594 75.50324219 -20.02929688 75.53710938 C-23.94594399 75.57794645 -26.40892109 75.0557251 -29.39453125 72.61328125 C-36.37824268 65.60862916 -37.18902993 57.58935091 -37.25 48.0625 C-37.19456711 40.71977348 -37.05149324 33.62956496 -33.375 27.125 C-27.1929648 21.59370535 -21.76916863 20.55209285 -13.5390625 20.46875 C-10 21 -10 21 0 25 C0 16.75 0 8.5 0 0 Z " fill="#181818" transform="translate(560,110)"/>
<path d="M0 0 C1.18013672 -0.03738281 2.36027344 -0.07476562 3.57617188 -0.11328125 C10.89037174 -0.18695534 15.81661113 0.50598538 21.4375 5.375 C24.833782 8.771282 24.48636733 13.13082051 24.55102539 17.72802734 C24.55086865 19.38900581 24.54531359 21.04999008 24.53515625 22.7109375 C24.5337413 23.59028961 24.53232635 24.46964172 24.53086853 25.37564087 C24.52529877 28.16712942 24.5127519 30.95853594 24.5 33.75 C24.49498109 35.64973842 24.49041887 37.5494781 24.48632812 39.44921875 C24.47533925 44.09117714 24.45809557 48.73307469 24.4375 53.375 C20.1475 53.375 15.8575 53.375 11.4375 53.375 C11.4375 50.735 11.4375 48.095 11.4375 45.375 C10.78523438 45.85710937 10.13296875 46.33921875 9.4609375 46.8359375 C1.98513192 52.23880584 -4.14379575 55.6658884 -13.5625 54.375 C-18.87392742 52.64199458 -22.50737934 50.14098824 -25.5625 45.375 C-27.46340704 39.67227888 -28.08148189 31.7714435 -25.5859375 26.19140625 C-23.34938624 23.44031099 -20.82370738 21.6623187 -17.5625 20.375 C-14.72167969 20.14794922 -14.72167969 20.14794922 -11.484375 20.1796875 C-9.74414062 20.18935547 -9.74414062 20.18935547 -7.96875 20.19921875 C-6.7621875 20.21597656 -5.555625 20.23273438 -4.3125 20.25 C-2.47945313 20.26353516 -2.47945313 20.26353516 -0.609375 20.27734375 C2.40644782 20.30090487 5.42187492 20.33380294 8.4375 20.375 C7.83566251 18.35454558 7.16443904 16.35388961 6.4375 14.375 C3.70071275 13.00660637 1.39485576 13.15865182 -1.6640625 13.05859375 C-2.87578125 13.01669922 -4.0875 12.97480469 -5.3359375 12.93164062 C-6.60695313 12.89232422 -7.87796875 12.85300781 -9.1875 12.8125 C-10.46625 12.76931641 -11.745 12.72613281 -13.0625 12.68164062 C-16.22905348 12.57530114 -19.39568753 12.47327167 -22.5625 12.375 C-23.72711426 8.88115721 -23.69818319 6.03844611 -23.5625 2.375 C-19.48177785 -1.70572215 -5.43370342 0.06550218 0 0 Z " fill="#191919" transform="translate(383.5625,131.625)"/>
<path d="M0 0 C1.22783203 -0.03738281 2.45566406 -0.07476562 3.72070312 -0.11328125 C10.19666821 -0.17605312 14.97780655 0.06494215 20.38452148 3.80615234 C24.64324014 8.1083888 25.27893144 11.64189887 25.27738953 17.49751282 C25.26190567 18.4122789 25.24642181 19.32704498 25.23046875 20.26953125 C25.22622391 21.21688644 25.22197906 22.16424164 25.21760559 23.14030457 C25.20085689 26.15632947 25.16321146 29.17167816 25.125 32.1875 C25.10994825 34.23631845 25.0962607 36.28514741 25.08398438 38.33398438 C25.05096579 43.3479155 24.99920947 48.36134322 24.9375 53.375 C22.79173363 53.40185938 20.64587355 53.42133088 18.5 53.4375 C17.30503906 53.44910156 16.11007812 53.46070313 14.87890625 53.47265625 C11.9375 53.375 11.9375 53.375 10.9375 52.375 C10.89669217 50.37541636 10.89495644 48.37454746 10.9375 46.375 C10.47859375 46.71273437 10.0196875 47.05046875 9.546875 47.3984375 C8.93328125 47.84445313 8.3196875 48.29046875 7.6875 48.75 C7.08421875 49.19085938 6.4809375 49.63171875 5.859375 50.0859375 C1.24951199 53.17791879 -2.40064087 53.73984063 -7.9375 53.75 C-8.63230469 53.77449219 -9.32710938 53.79898438 -10.04296875 53.82421875 C-15.22597575 53.85350128 -18.14310801 52.72305205 -22.0625 49.375 C-25.67829495 45.07596566 -25.61190453 40.75287206 -25.625 35.375 C-25.66173828 34.5809375 -25.69847656 33.786875 -25.73632812 32.96875 C-25.77902612 27.27568379 -25.77902612 27.27568379 -23.75732422 24.734375 C-19.42617494 21.06600884 -16.70681292 20.25051304 -11.1796875 20.27734375 C-10.01308594 20.28056641 -8.84648437 20.28378906 -7.64453125 20.28710938 C-6.42121094 20.29548828 -5.19789063 20.30386719 -3.9375 20.3125 C-2.70644531 20.31701172 -1.47539062 20.32152344 -0.20703125 20.32617188 C2.84119392 20.3379867 5.88932314 20.35445972 8.9375 20.375 C8.33566251 18.35454558 7.66443904 16.35388961 6.9375 14.375 C4.20071275 13.00660637 1.89485576 13.15865182 -1.1640625 13.05859375 C-2.37578125 13.01669922 -3.5875 12.97480469 -4.8359375 12.93164062 C-6.10695313 12.89232422 -7.37796875 12.85300781 -8.6875 12.8125 C-9.96625 12.76931641 -11.245 12.72613281 -12.5625 12.68164062 C-15.72905348 12.57530114 -18.89568753 12.47327167 -22.0625 12.375 C-22.3925 8.745 -22.7225 5.115 -23.0625 1.375 C-15.37086633 0.36272459 -7.75394879 0.08982984 0 0 Z " fill="#181818" transform="translate(488.0625,131.625)"/>
<path d="M0 0 C5.61 0 11.22 0 17 0 C27.48507463 30.8261194 27.48507463 30.8261194 28 42 C28.66 42 29.32 42 30 42 C30.09539063 41.11054688 30.19078125 40.22109375 30.2890625 39.3046875 C31.12633837 33.46138327 32.82060569 27.80945853 34.375 22.125 C34.67921875 20.99191406 34.9834375 19.85882813 35.296875 18.69140625 C37.00700313 12.38439525 38.86283325 6.17549409 41 0 C46.61 0 52.22 0 58 0 C56.19104959 7.23580166 53.93106582 14.13047637 51.24560547 21.07617188 C48.75508485 27.52836543 46.56025944 34.04915263 44.60546875 40.68359375 C40.92416194 53.1334793 37.2514129 64.36898393 26 72 C22.26242833 73.85040434 19.33804229 74.22501307 15.1875 74.125 C14.21167969 74.10695313 13.23585938 74.08890625 12.23046875 74.0703125 C11.49441406 74.04710937 10.75835938 74.02390625 10 74 C9.67 71.03 9.34 68.06 9 65 C9.83144531 64.62488281 10.66289063 64.24976563 11.51953125 63.86328125 C12.60621094 63.35152344 13.69289063 62.83976562 14.8125 62.3125 C15.89144531 61.81363281 16.97039063 61.31476563 18.08203125 60.80078125 C21.2362629 58.85419385 22.40061549 57.2941709 24 54 C22.8553125 53.6596875 22.8553125 53.6596875 21.6875 53.3125 C17.63090077 51.33137014 16.47162348 48.27268984 14.9375 44.1328125 C14.628125 43.14023438 14.31875 42.14765625 14 41.125 C12.92721008 37.78017973 11.82963359 34.60474993 10.4375 31.375 C8.9110066 27.79105897 7.83199057 24.20890494 6.75 20.47265625 C6.08190743 18.27003857 5.33192858 16.14481588 4.5 14 C2.72337992 9.41274815 1.37695277 4.72098091 0 0 Z " fill="#191919" transform="translate(615,132)"/>
<path d="M0 0 C5.28 0 10.56 0 16 0 C16.02505615 1.81234131 16.0501123 3.62468262 16.07592773 5.49194336 C16.159684 11.46711805 16.2479555 17.44221159 16.33933926 23.41727352 C16.39460097 27.0414158 16.448026 30.6655661 16.49731445 34.28979492 C16.54491032 37.78467099 16.5972511 41.2794462 16.65294075 44.77420235 C16.68336413 46.76233823 16.70881982 48.75054809 16.73423767 50.73875427 C16.75418289 51.93992386 16.77412811 53.14109344 16.79467773 54.37866211 C16.81799416 55.97417152 16.81799416 55.97417152 16.84178162 57.60191345 C16.73228552 59.95195928 16.73228552 59.95195928 18 61 C19.34747084 61.23075082 20.70377565 61.41153063 22.0625 61.5625 C23.361875 61.706875 24.66125 61.85125 26 62 C27.13764351 66.26616316 28 69.56486311 28 74 C24.21959872 75.26013376 20.62959239 75.30131603 16.6875 75.375 C15.94048828 75.41238281 15.19347656 75.44976562 14.42382812 75.48828125 C10.39988643 75.55187295 7.79343565 75.27189062 4.58203125 72.7265625 C0.3976371 68.30794357 -0.25024309 65.56369003 -0.22705078 59.48730469 C-0.22734283 58.84298492 -0.22763489 58.19866516 -0.22793579 57.53482056 C-0.22654694 55.41369979 -0.21100716 53.2929341 -0.1953125 51.171875 C-0.19158078 49.69785758 -0.18873456 48.22383768 -0.18673706 46.74981689 C-0.17911311 42.87655753 -0.15947535 39.00344895 -0.1373291 35.13024902 C-0.11684394 31.1753951 -0.10772964 27.22051673 -0.09765625 23.265625 C-0.07622819 15.51034007 -0.04105625 7.7552104 0 0 Z " fill="#191919" transform="translate(589,110)"/>
<path d="M0 0 C1.8871875 0.0309375 1.8871875 0.0309375 3.8125 0.0625 C3.83999766 1.43738287 3.8591164 2.81243391 3.875 4.1875 C3.88660156 4.95320312 3.89820313 5.71890625 3.91015625 6.5078125 C3.79873099 9.42269734 3.34004849 12.19629165 2.8125 15.0625 C1.79929687 15.19527344 0.78609375 15.32804688 -0.2578125 15.46484375 C-1.60938204 15.64317584 -2.96094414 15.82156425 -4.3125 16 C-4.97765625 16.08701172 -5.6428125 16.17402344 -6.328125 16.26367188 C-10.29991196 16.78934956 -14.23303006 17.40342168 -18.1875 18.0625 C-18.1875 29.9425 -18.1875 41.8225 -18.1875 54.0625 C-23.4675 54.0625 -28.7475 54.0625 -34.1875 54.0625 C-34.1875 36.5725 -34.1875 19.0825 -34.1875 1.0625 C-29.8975 1.0625 -25.6075 1.0625 -21.1875 1.0625 C-20.8575 3.0425 -20.5275 5.0225 -20.1875 7.0625 C-16.33090838 5.61627814 -12.70987006 3.84932503 -9.0546875 1.96484375 C-5.92169753 0.45078374 -3.43189102 -0.05626051 0 0 Z " fill="#1C1C1C" transform="translate(454.1875,130.9375)"/>
<path d="M0 0 C5.41026925 2.40456411 9.09133725 5.956112 11.76171875 11.296875 C12.49496068 17.32987822 12.80966557 22.71420708 9.13671875 27.796875 C5.52919377 31.80523609 2.5309585 34.92609813 -3.0390625 35.671875 C-9.64465756 35.93511166 -14.07350153 35.51302171 -19.23828125 31.296875 C-23.28678258 27.00050624 -24.58204784 23.04851252 -24.80078125 17.171875 C-24.49827972 10.99774127 -22.91952386 7.96576166 -18.54296875 3.609375 C-12.79630072 -1.41605129 -7.27191745 -2.28437197 0 0 Z " fill="#F6F2F2" transform="translate(148.23828125,128.703125)"/>
<path d="M0 0 C5.51215212 2.38753101 9.39851949 5.52981741 12 11 C12.92435605 16.60642042 13.3409643 22.44908516 10.640625 27.5859375 C6.90977489 32.02663962 2.78584658 35.44201142 -3.09375 36.30859375 C-8.80598219 36.63137399 -13.39596541 35.4505183 -18 32 C-22.60242861 26.97501591 -24.42522273 22.21775127 -24.34765625 15.4140625 C-23.56466538 9.97711467 -20.27253136 6.15415635 -16.3125 2.5625 C-11.16434238 -0.91598488 -6.07985762 -0.78978543 0 0 Z " fill="#F6F0EF" transform="translate(198,78)"/>
<path d="M0 0 C4.00521387 2.88747977 7.46370991 6.48991981 9.6875 10.9375 C10.28013164 17.17152893 10.03749454 22.49375888 6.6875 27.9375 C1.33587967 32.77475192 -2.71335929 35.27187988 -9.9375 35.14453125 C-15.47138729 34.66213647 -19.07729628 32.49361962 -22.6875 28.4375 C-26.28937278 24.0459118 -26.67083142 20.1082141 -26.58203125 14.5703125 C-26.0651775 9.52162513 -24.30109524 5.86058858 -20.65234375 2.33203125 C-14.34089698 -2.29463507 -7.28552622 -2.3368669 0 0 Z " fill="#F6F2F2" transform="translate(150.3125,79.0625)"/>
<path d="M0 0 C4.54197646 2.65662774 7.94617534 6.20485068 10.3125 10.9375 C11.04462827 17.73583396 11.11572782 23.67898225 6.9140625 29.3125 C2.48893961 33.80238078 -2.08791113 35.1668657 -8.3125 35.4375 C-14.53718411 35.18782387 -17.74601632 33.04077398 -21.9375 28.5 C-25.26777555 23.62352509 -26.28101022 19.87260219 -25.6875 13.9375 C-23.76891866 7.59310034 -21.15678927 3.66127141 -15.6875 -0.0625 C-10.34145956 -1.84451348 -5.38465192 -1.55150988 0 0 Z " fill="#F6F2F1" transform="translate(199.6875,129.0625)"/>
<path d="M0 0 C5.62287933 3.80213745 9.17149748 8.61648984 11.8125 14.875 C12.12313886 17.62597292 12.29059072 20.07327051 12.25 22.8125 C12.24242676 23.52398193 12.23485352 24.23546387 12.22705078 24.96850586 C12.04948955 30.5889022 11.31539379 33.54247347 7.8125 37.875 C7.33039063 38.49890625 6.84828125 39.1228125 6.3515625 39.765625 C3.74048683 43.02615604 1.68116887 45.16578207 -2.1875 46.875 C-2.1875 45.225 -2.1875 43.575 -2.1875 41.875 C-2.75259277 41.88023682 -3.31768555 41.88547363 -3.89990234 41.89086914 C-6.4540903 41.91162422 -9.00826053 41.9246554 -11.5625 41.9375 C-12.45195312 41.94587891 -13.34140625 41.95425781 -14.2578125 41.96289062 C-15.53398437 41.96772461 -15.53398437 41.96772461 -16.8359375 41.97265625 C-18.01422119 41.98051147 -18.01422119 41.98051147 -19.21630859 41.98852539 C-21.1875 41.875 -21.1875 41.875 -23.1875 40.875 C-22.8575 39.885 -22.5275 38.895 -22.1875 37.875 C-21.548125 38.205 -20.90875 38.535 -20.25 38.875 C-15.57815719 40.40049969 -10.93881926 40.83960596 -6.2265625 39.1875 C-2.10532535 37.02789975 1.97315214 34.25362456 3.8125 29.875 C4.6503693 23.68652676 4.74127052 18.02974762 2.25 12.25 C-2.7899748 7.33925532 -6.2602806 5.63484087 -13.25 5.375 C-18.36779818 5.57920142 -21.41043313 6.19005671 -25.1875 9.875 C-29.00619304 14.38614938 -31.00812412 18.51357939 -30.6953125 24.48828125 C-29.7342427 29.0053093 -27.5014721 32.91645487 -25.1875 36.875 C-25.8475 36.875 -26.5075 36.875 -27.1875 36.875 C-27.1875 36.215 -27.1875 35.555 -27.1875 34.875 C-27.8475 34.875 -28.5075 34.875 -29.1875 34.875 C-29.5175 33.555 -29.8475 32.235 -30.1875 30.875 C-30.8475 30.875 -31.5075 30.875 -32.1875 30.875 C-33.47115387 28.30769226 -33.32025635 26.42847003 -33.3125 23.5625 C-33.31507813 22.61761719 -33.31765625 21.67273438 -33.3203125 20.69921875 C-33.192863 17.98904264 -32.79346226 15.51526415 -32.1875 12.875 C-33.1775 13.37 -33.1775 13.37 -34.1875 13.875 C-36.3125 12.9375 -36.3125 12.9375 -38.1875 11.875 C-27.59003266 0.70181512 -15.9196067 -8.26749323 0 0 Z " fill="#E44A41" transform="translate(205.1875,73.125)"/>
<path d="M0 0 C5.74510315 3.56196395 11.14478231 7.20475986 13.125 13.9375 C14.115 14.4325 14.115 14.4325 15.125 14.9375 C13.64 15.4325 13.64 15.4325 12.125 15.9375 C11.795 15.6075 11.465 15.2775 11.125 14.9375 C10.465 15.2675 9.805 15.5975 9.125 15.9375 C9.29 16.453125 9.455 16.96875 9.625 17.5 C10.69926183 22.73702642 10.46291086 27.11555885 8.125 31.9375 C7.18943826 28.83800539 7.12695957 26.28187721 7.3125 23.0625 C7.35543934 18.19604176 6.4145182 15.67154769 3.125 11.9375 C-2.07230996 7.24724467 -6.17540671 6.51616379 -13.01171875 6.59765625 C-17.52609093 7.1334685 -20.62048652 8.794661 -23.875 11.9375 C-27.28290504 17.36884867 -27.49937392 22.7039964 -26.875 28.9375 C-26.00399451 32.3989054 -26.00399451 32.3989054 -24.875 34.9375 C-28.75 32.3125 -28.75 32.3125 -29.875 28.9375 C-29.94529121 26.36484182 -29.96870832 23.82108569 -29.9375 21.25 C-29.93298828 20.54810547 -29.92847656 19.84621094 -29.92382812 19.12304688 C-29.91206927 17.39449462 -29.89413454 15.66598635 -29.875 13.9375 C-28.885 13.9375 -27.895 13.9375 -26.875 13.9375 C-27.37 12.4525 -27.37 12.4525 -27.875 10.9375 C-27.215 10.9375 -26.555 10.9375 -25.875 10.9375 C-26.37 9.4525 -26.37 9.4525 -26.875 7.9375 C-27.26429687 8.38738281 -27.65359375 8.83726563 -28.0546875 9.30078125 C-33.23827278 15.26070995 -38.51426347 21.13628337 -43.875 26.9375 C-44.38675781 27.49179688 -44.89851563 28.04609375 -45.42578125 28.6171875 C-47.10009209 30.14257042 -48.83690828 31.1465505 -50.8125 32.25 C-54.77686227 34.63589142 -56.50849461 37.02366417 -58.875 40.9375 C-59.535 40.9375 -60.195 40.9375 -60.875 40.9375 C-61.205 41.9275 -61.535 42.9175 -61.875 43.9375 C-63.195 43.6075 -64.515 43.2775 -65.875 42.9375 C-61.50372972 38.51566365 -57.12475043 34.10157358 -52.74023438 29.69287109 C-51.24852203 28.19107961 -49.75860672 26.68750097 -48.27050781 25.18212891 C-46.13552352 23.02298034 -43.99423229 20.87026847 -41.8515625 18.71875 C-41.18379791 18.04066284 -40.51603333 17.36257568 -39.82803345 16.66394043 C-39.2075412 16.04329712 -38.58704895 15.42265381 -37.94775391 14.78320312 C-37.40148346 14.23249146 -36.85521301 13.68177979 -36.29238892 13.11437988 C-34.875 11.9375 -34.875 11.9375 -32.875 11.9375 C-32.63523438 11.35226563 -32.39546875 10.76703125 -32.1484375 10.1640625 C-30.62192911 7.49501409 -28.94849017 6.15903578 -26.5 4.3125 C-25.72914062 3.72210938 -24.95828125 3.13171875 -24.1640625 2.5234375 C-17.31952157 -2.21868472 -7.91682781 -2.97569862 0 0 Z " fill="#DC544A" transform="translate(151.875,72.0625)"/>
<path d="M0 0 C1.70349609 0.07347656 1.70349609 0.07347656 3.44140625 0.1484375 C5.14103516 0.19871094 5.14103516 0.19871094 6.875 0.25 C10.00390625 0.5234375 10.00390625 0.5234375 14.00390625 1.5234375 C14.00390625 9.4434375 14.00390625 17.3634375 14.00390625 25.5234375 C5.99864586 28.95426338 5.99864586 28.95426338 1.75390625 28.9609375 C0.50867188 28.98994141 0.50867188 28.98994141 -0.76171875 29.01953125 C-2.99609375 28.5234375 -2.99609375 28.5234375 -4.76953125 27.0859375 C-6.65435298 23.14822076 -6.42988427 19.3939762 -6.37109375 15.0859375 C-6.38269531 14.23966797 -6.39429688 13.39339844 -6.40625 12.52148438 C-6.35263228 1.1098471 -6.35263228 1.1098471 0 0 Z " fill="#EDEDED" transform="translate(545.99609375,143.4765625)"/>
<path d="M0 0 C1.05617271 -0.0049926 1.05617271 -0.0049926 2.13368225 -0.01008606 C3.62581731 -0.0151578 5.11796375 -0.01749431 6.61010742 -0.01733398 C8.89716232 -0.01951884 11.18373378 -0.03766674 13.47070312 -0.05664062 C14.91796709 -0.05957479 16.36523336 -0.06155943 17.8125 -0.0625 C18.49900131 -0.06968552 19.18550262 -0.07687103 19.89280701 -0.08427429 C24.74383256 -0.06085494 24.74383256 -0.06085494 26.97265625 2.16796875 C27.21557617 4.21508789 27.21557617 4.21508789 27.203125 6.703125 C27.20119141 7.59451172 27.19925781 8.48589844 27.19726562 9.40429688 C27.17889648 10.80325195 27.17889648 10.80325195 27.16015625 12.23046875 C27.15951172 13.16697266 27.15886719 14.10347656 27.15820312 15.06835938 C27.11284849 22.02777651 27.11284849 22.02777651 25.97265625 23.16796875 C24.4109288 23.25482478 22.84536281 23.27499094 21.28125 23.265625 C20.33701172 23.26240234 19.39277344 23.25917969 18.41992188 23.25585938 C17.42669922 23.24748047 16.43347656 23.23910156 15.41015625 23.23046875 C14.41306641 23.22595703 13.41597656 23.22144531 12.38867188 23.21679688 C9.91660776 23.20496882 7.44466107 23.18848724 4.97265625 23.16796875 C5.96265625 22.83796875 6.95265625 22.50796875 7.97265625 22.16796875 C8.30265625 18.20796875 8.63265625 14.24796875 8.97265625 10.16796875 C10.29265625 10.16796875 11.61265625 10.16796875 12.97265625 10.16796875 C12.97265625 13.13796875 12.97265625 16.10796875 12.97265625 19.16796875 C13.96265625 19.16796875 14.95265625 19.16796875 15.97265625 19.16796875 C15.97265625 16.52796875 15.97265625 13.88796875 15.97265625 11.16796875 C17.29265625 10.83796875 18.61265625 10.50796875 19.97265625 10.16796875 C19.97265625 13.13796875 19.97265625 16.10796875 19.97265625 19.16796875 C20.96265625 19.16796875 21.95265625 19.16796875 22.97265625 19.16796875 C22.64265625 15.53796875 22.31265625 11.90796875 21.97265625 8.16796875 C20.5959375 8.18537109 20.5959375 8.18537109 19.19140625 8.203125 C12.68262598 8.25098368 6.4039498 8.19697572 -0.02734375 7.16796875 C-0.02734375 6.17796875 -0.02734375 5.18796875 -0.02734375 4.16796875 C-1.34734375 4.16796875 -2.66734375 4.16796875 -4.02734375 4.16796875 C-4.02734375 5.48796875 -4.02734375 6.80796875 -4.02734375 8.16796875 C-4.68734375 8.16796875 -5.34734375 8.16796875 -6.02734375 8.16796875 C-6.02734375 8.82796875 -6.02734375 9.48796875 -6.02734375 10.16796875 C-5.36734375 10.16796875 -4.70734375 10.16796875 -4.02734375 10.16796875 C-3.69734375 12.80796875 -3.36734375 15.44796875 -3.02734375 18.16796875 C-2.05796875 18.43609375 -1.08859375 18.70421875 -0.08984375 18.98046875 C0.92078125 19.37234375 1.93140625 19.76421875 2.97265625 20.16796875 C3.30265625 21.15796875 3.63265625 22.14796875 3.97265625 23.16796875 C0.01265625 23.16796875 -3.94734375 23.16796875 -8.02734375 23.16796875 C-8.05417362 19.52208706 -8.07409944 15.87640029 -8.08984375 12.23046875 C-8.09822266 11.18955078 -8.10660156 10.14863281 -8.11523438 9.07617188 C-8.12006836 7.59213867 -8.12006836 7.59213867 -8.125 6.078125 C-8.13023682 5.16168213 -8.13547363 4.24523926 -8.14086914 3.30102539 C-7.89232186 -1.36899101 -3.68352959 0.00595347 0 0 Z " fill="#212121" transform="translate(271.02734375,198.83203125)"/>
<path d="M0 0 C5.9918327 2.44111703 9.88397927 7.50647489 13 13 C13.41921825 15.76394931 13.62484687 18.00476905 13.5625 20.75 C13.54719238 21.45882324 13.53188477 22.16764648 13.51611328 22.89794922 C12.88396665 36.68880971 3.47003903 44.10662099 -6 53 C-6.66 52.01 -7.32 51.02 -8 50 C-7.67 49.34 -7.34 48.68 -7 48 C-6.01 48.33 -5.02 48.66 -4 49 C-3.67 47.68 -3.34 46.36 -3 45 C-2.01 45 -1.02 45 0 45 C0 43.68 0 42.36 0 41 C0.99 41 1.98 41 3 41 C3 40.01 3 39.02 3 38 C1.35 38 -0.3 38 -2 38 C-1.36771484 37.16855469 -1.36771484 37.16855469 -0.72265625 36.3203125 C-0.17480469 35.59585938 0.37304688 34.87140625 0.9375 34.125 C1.48277344 33.40570313 2.02804688 32.68640625 2.58984375 31.9453125 C6.0871406 27.12078665 5.54313281 21.76324262 5 16 C2.84829659 11.53720774 0.09499214 8.7641197 -4 6 C-9.90945693 4.13256247 -16.44987679 4.13542028 -22 7 C-22 6.01 -22 5.02 -22 4 C-15.26822753 1.70833277 -9.14656987 0.67512848 -2.4375 3.5 C-1.633125 3.995 -0.82875 4.49 0 5 C0 3.35 0 1.7 0 0 Z " fill="#E2554C" transform="translate(204,124)"/>
<path d="M0 0 C1.32 0 2.64 0 4 0 C4 0.99 4 1.98 4 3 C4.6612085 2.99476318 5.32241699 2.98952637 6.00366211 2.98413086 C8.98159851 2.96342344 11.95951982 2.95035988 14.9375 2.9375 C15.97841797 2.92912109 17.01933594 2.92074219 18.09179688 2.91210938 C19.08115234 2.90888672 20.07050781 2.90566406 21.08984375 2.90234375 C22.46450806 2.89448853 22.46450806 2.89448853 23.86694336 2.88647461 C26 3 26 3 27 4 C27.07226502 5.85287502 27.0838122 7.70833878 27.0625 9.5625 C27.05347656 10.57441406 27.04445313 11.58632812 27.03515625 12.62890625 C27.02355469 13.41136719 27.01195312 14.19382813 27 15 C26.01 15 25.02 15 24 15 C24 12.03 24 9.06 24 6 C23.01 6.33 22.02 6.66 21 7 C20.67 9.64 20.34 12.28 20 15 C19.01 15 18.02 15 17 15 C17 12.03 17 9.06 17 6 C15.68 6 14.36 6 13 6 C13.01160156 6.69867188 13.02320313 7.39734375 13.03515625 8.1171875 C13.04417969 9.02726563 13.05320312 9.93734375 13.0625 10.875 C13.07410156 11.77992188 13.08570313 12.68484375 13.09765625 13.6171875 C13 16 13 16 12 18 C17.61 18.33 23.22 18.66 29 19 C29 19.33 29 19.66 29 20 C18.44 20 7.88 20 -3 20 C-3 19.67 -3 19.34 -3 19 C-0.03 18.67 2.94 18.34 6 18 C4.68 17.34 3.36 16.68 2 16 C0 14 0 14 -0.1953125 12.0546875 C-0.13020833 10.03645833 -0.06510417 8.01822917 0 6 C-0.66 6 -1.32 6 -2 6 C-2 5.34 -2 4.68 -2 4 C-1.34 4 -0.68 4 0 4 C0 2.68 0 1.36 0 0 Z " fill="#5B5B5B" transform="translate(267,203)"/>
<path d="M0 0 C0 0.66 0 1.32 0 2 C-0.99 2 -1.98 2 -3 2 C-3 2.99 -3 3.98 -3 5 C-2.01 4.67 -1.02 4.34 0 4 C2.22818441 3.93062938 4.45834524 3.91542916 6.6875 3.9375 C8.45673828 3.95103516 8.45673828 3.95103516 10.26171875 3.96484375 C11.16535156 3.97644531 12.06898438 3.98804687 13 4 C13 4.33 13 4.66 13 5 C12.1646875 5.02126953 12.1646875 5.02126953 11.3125 5.04296875 C5.19092108 5.42556743 0.61065194 6.83309626 -4 11 C-7.40790504 16.43134867 -7.62437392 21.7664964 -7 28 C-6.12899451 31.4614054 -6.12899451 31.4614054 -5 34 C-8.875 31.375 -8.875 31.375 -10 28 C-10.07029121 25.42734182 -10.09370832 22.88358569 -10.0625 20.3125 C-10.05798828 19.61060547 -10.05347656 18.90871094 -10.04882812 18.18554688 C-10.03706927 16.45699462 -10.01913454 14.72848635 -10 13 C-9.01 13 -8.02 13 -7 13 C-7.495 11.515 -7.495 11.515 -8 10 C-7.34 10 -6.68 10 -6 10 C-6.495 8.515 -6.495 8.515 -7 7 C-7.38929687 7.44988281 -7.77859375 7.89976563 -8.1796875 8.36328125 C-13.36327278 14.32320995 -18.63926347 20.19878337 -24 26 C-24.51175781 26.55429688 -25.02351563 27.10859375 -25.55078125 27.6796875 C-27.22509209 29.20507042 -28.96190828 30.2090505 -30.9375 31.3125 C-34.90186227 33.69839142 -36.63349461 36.08616417 -39 40 C-39.66 40 -40.32 40 -41 40 C-41.33 40.99 -41.66 41.98 -42 43 C-43.32 42.67 -44.64 42.34 -46 42 C-41.62872972 37.57816365 -37.24975043 33.16407358 -32.86523438 28.75537109 C-31.37352203 27.25357961 -29.88360672 25.75000097 -28.39550781 24.24462891 C-26.26052352 22.08548034 -24.11923229 19.93276847 -21.9765625 17.78125 C-21.30879791 17.10316284 -20.64103333 16.42507568 -19.95303345 15.72644043 C-19.3325412 15.10579712 -18.71204895 14.48515381 -18.07275391 13.84570312 C-17.52648346 13.29499146 -16.98021301 12.74427979 -16.41738892 12.17687988 C-15 11 -15 11 -13 11 C-12.7628125 10.41734375 -12.525625 9.8346875 -12.28125 9.234375 C-10.7273194 6.52447163 -8.98070569 5.13469198 -6.5 3.25 C-5.7059375 2.63640625 -4.911875 2.0228125 -4.09375 1.390625 C-2 0 -2 0 0 0 Z " fill="#E64A40" transform="translate(132,73)"/>
<path d="M0 0 C1.57043101 0.01330874 3.14079971 0.03717648 4.7109375 0.0703125 C5.51273437 0.07933594 6.31453125 0.08835938 7.140625 0.09765625 C9.12252273 0.12125027 11.10426731 0.15712185 13.0859375 0.1953125 C13.0859375 2.8353125 13.0859375 5.4753125 13.0859375 8.1953125 C7.41349173 11.49564458 2.7231272 13.37954137 -3.9140625 12.1953125 C-5.9140625 10.1953125 -5.9140625 10.1953125 -6.1796875 8.3203125 C-6.17453125 7.6190625 -6.169375 6.9178125 -6.1640625 6.1953125 C-6.16921875 5.4940625 -6.174375 4.7928125 -6.1796875 4.0703125 C-5.61379164 0.07575351 -3.73284057 0.18626949 0 0 Z " fill="#EBEBEB" transform="translate(378.9140625,160.8046875)"/>
<path d="M0 0 C1.57043101 0.01330874 3.14079971 0.03717648 4.7109375 0.0703125 C5.51273437 0.07933594 6.31453125 0.08835938 7.140625 0.09765625 C9.12252273 0.12125027 11.10426731 0.15712185 13.0859375 0.1953125 C13.0859375 2.8353125 13.0859375 5.4753125 13.0859375 8.1953125 C7.41349173 11.49564458 2.7231272 13.37954137 -3.9140625 12.1953125 C-5.9140625 10.1953125 -5.9140625 10.1953125 -6.1796875 8.3203125 C-6.17453125 7.6190625 -6.169375 6.9178125 -6.1640625 6.1953125 C-6.16921875 5.4940625 -6.174375 4.7928125 -6.1796875 4.0703125 C-5.61379164 0.07575351 -3.73284057 0.18626949 0 0 Z " fill="#F0F0F0" transform="translate(483.9140625,160.8046875)"/>
<path d="M0 0 C0.99 0.33 1.98 0.66 3 1 C3.05420701 3.56278699 3.09377007 6.12441483 3.125 8.6875 C3.14175781 9.40873047 3.15851563 10.12996094 3.17578125 10.87304688 C3.21419053 15.078863 2.84629221 18.22013632 1 22 C0.566875 23.155 0.13375 24.31 -0.3125 25.5 C-2.34022147 29.70564453 -4.76146993 32.88073497 -9 35 C-9 33.35 -9 31.7 -9 30 C-9.56509277 30.00523682 -10.13018555 30.01047363 -10.71240234 30.01586914 C-13.2665903 30.03662422 -15.82076053 30.0496554 -18.375 30.0625 C-19.26445312 30.07087891 -20.15390625 30.07925781 -21.0703125 30.08789062 C-22.34648437 30.09272461 -22.34648437 30.09272461 -23.6484375 30.09765625 C-24.82672119 30.10551147 -24.82672119 30.10551147 -26.02880859 30.11352539 C-28 30 -28 30 -30 29 C-29.505 27.515 -29.505 27.515 -29 26 C-28.360625 26.33 -27.72125 26.66 -27.0625 27 C-22.42723072 28.51355731 -17.72895199 29.02404892 -13.07421875 27.27734375 C-11.27461144 26.2917495 -9.65098245 25.2175503 -8 24 C-7.14341797 23.38705078 -7.14341797 23.38705078 -6.26953125 22.76171875 C-3.13671487 20.35815654 -1.56938905 18.88641129 -1 15 C-0.9561978 12.60456711 -0.9602818 10.20800409 -1 7.8125 C-1.03741339 5.54197489 -1.04699295 3.27034704 -1 1 C-0.67 0.67 -0.34 0.34 0 0 Z " fill="#F53D2D" transform="translate(212,85)"/>
<path d="M0 0 C6.93 0 13.86 0 21 0 C19.68 0.33 18.36 0.66 17 1 C17 2.65 17 4.3 17 6 C14.03 6 11.06 6 8 6 C8 5.01 8 4.02 8 3 C6.68 3 5.36 3 4 3 C4 4.32 4 5.64 4 7 C3.34 7 2.68 7 2 7 C2 7.66 2 8.32 2 9 C2.66 9 3.32 9 4 9 C4.33 11.64 4.66 14.28 5 17 C5.969375 17.268125 6.93875 17.53625 7.9375 17.8125 C8.948125 18.204375 9.95875 18.59625 11 19 C11.33 19.99 11.66 20.98 12 22 C8.04 22 4.08 22 0 22 C0 14.74 0 7.48 0 0 Z " fill="#202020" transform="translate(263,200)"/>
<path d="M0 0 C0.66 0 1.32 0 2 0 C2 24.75 2 49.5 2 75 C-2.29 75 -6.58 75 -11 75 C-11 74.67 -11 74.34 -11 74 C-7.37 74 -3.74 74 0 74 C-0.01474869 73.08767105 -0.02949738 72.1753421 -0.04469299 71.23536682 C-0.1824893 62.65623636 -0.31546476 54.07704784 -0.4429636 45.49775791 C-0.50869071 41.08659293 -0.57631138 36.67547361 -0.64819336 32.2644043 C-0.71743668 28.0110492 -0.78179253 23.75764616 -0.84269524 19.50416374 C-0.86685423 17.8777591 -0.89280327 16.25138008 -0.92053413 14.62503242 C-0.95894151 12.3549615 -0.99110193 10.08488456 -1.02172852 7.81469727 C-1.04171402 6.52008072 -1.06169952 5.22546417 -1.08229065 3.89161682 C-1 1 -1 1 0 0 Z " fill="#4A4A4A" transform="translate(574,110)"/>
<path d="M0 0 C0.3125 2.6875 0.3125 2.6875 0 6 C-2.5 8.875 -2.5 8.875 -5 11 C-3.66511872 14.59391114 -2.03977277 17.75490696 0 21 C-3.35810395 19.61043975 -5.18586552 18.17473533 -7 15 C-7.1875 12.25 -7.1875 12.25 -7 10 C-7.33 10 -7.66 10 -8 10 C-9.3242101 11.3475162 -10.64537617 12.69818514 -11.94946289 14.06518555 C-18.00725247 20.39253622 -24.07374594 26.5101498 -33.375 27.16796875 C-34.24125 27.17441406 -35.1075 27.18085938 -36 27.1875 C-37.299375 27.20876953 -37.299375 27.20876953 -38.625 27.23046875 C-41 27 -41 27 -44 25 C-39.05 25 -34.1 25 -29 25 C-29 24.34 -29 23.68 -29 23 C-26.69 22.34 -24.38 21.68 -22 21 C-21.67 19.68 -21.34 18.36 -21 17 C-21 17.66 -21 18.32 -21 19 C-20.34 19 -19.68 19 -19 19 C-19.33 17.68 -19.66 16.36 -20 15 C-18.68 15.33 -17.36 15.66 -16 16 C-16 15.34 -16 14.68 -16 14 C-15.34 14 -14.68 14 -14 14 C-14 13.34 -14 12.68 -14 12 C-13.34 12 -12.68 12 -12 12 C-12 11.34 -12 10.68 -12 10 C-11.34 10 -10.68 10 -10 10 C-9.67 8.68 -9.34 7.36 -9 6 C-7.68 6 -6.36 6 -5 6 C-5.495 3.525 -5.495 3.525 -6 1 C-4 0 -4 0 0 0 Z " fill="#E54C42" transform="translate(127,195)"/>
<path d="M0 0 C1.32 0 2.64 0 4 0 C4 2.97 4 5.94 4 9 C4.99 9 5.98 9 7 9 C7 6.36 7 3.72 7 1 C8.32 0.67 9.64 0.34 11 0 C11 3.3 11 6.6 11 10 C12.98 9.67 14.96 9.34 17 9 C17 10.32 17 11.64 17 13 C10.07 13 3.14 13 -4 13 C-3.01 12.67 -2.02 12.34 -1 12 C-0.67 8.04 -0.34 4.08 0 0 Z " fill="#121212" transform="translate(280,209)"/>
<path d="M0 0 C2.81256281 -0.02684312 5.62487241 -0.04676188 8.4375 -0.0625 C9.23994141 -0.07087891 10.04238281 -0.07925781 10.86914062 -0.08789062 C12.91295221 -0.0965143 14.95683902 -0.0522815 17 0 C18 1 18 1 18.09765625 3.50390625 C18.08605469 4.51324219 18.07445312 5.52257812 18.0625 6.5625 C18.05347656 7.57441406 18.04445313 8.58632812 18.03515625 9.62890625 C18.02355469 10.41136719 18.01195312 11.19382813 18 12 C17.01 12 16.02 12 15 12 C15 9.03 15 6.06 15 3 C14.01 3.33 13.02 3.66 12 4 C11.67 6.64 11.34 9.28 11 12 C10.01 12 9.02 12 8 12 C8 9.03 8 6.06 8 3 C6.68 3.33 5.36 3.66 4 4 C3.67 6.64 3.34 9.28 3 12 C2.01 12 1.02 12 0 12 C0 8.04 0 4.08 0 0 Z " fill="#D4D4D4" transform="translate(276,206)"/>
<path d="M0 0 C5.90281524 1.68651864 8.61720358 5.69089657 11.62109375 10.70703125 C13.22158539 14.52916851 13.49604146 17.86023143 13.4375 21.9375 C13.43282715 22.64463135 13.4281543 23.3517627 13.42333984 24.08032227 C13.26763109 29.54342072 12.46709924 32.81908621 9 37 C8.01 37.495 8.01 37.495 7 38 C7.4390932 35.43862298 7.90284522 33.20949 9 30.84375 C10.31205299 27.11259932 10.45651534 23.6152987 10.625 19.6875 C10.66367188 18.94693359 10.70234375 18.20636719 10.7421875 17.44335938 C10.83581705 15.62928691 10.91896851 13.81467884 11 12 C10.01 12 9.02 12 8 12 C8.02320313 12.95261719 8.04640625 13.90523437 8.0703125 14.88671875 C8.09738281 16.76810547 8.09738281 16.76810547 8.125 18.6875 C8.14820313 19.92886719 8.17140625 21.17023438 8.1953125 22.44921875 C8.00896059 25.83709655 7.58000739 28.02229376 6 31 C5.34 31.33 4.68 31.66 4 32 C4.33 31.01 4.66 30.02 5 29 C5.14648082 26.73236426 5.2209626 24.45967634 5.25 22.1875 C5.27578125 20.98480469 5.3015625 19.78210938 5.328125 18.54296875 C4.9731533 14.71011955 3.92202587 12.30284973 2 9 C3.65 9.33 5.3 9.66 7 10 C7.33 9.01 7.66 8.02 8 7 C7.01 6.67 6.02 6.34 5 6 C4.34 5.01 3.68 4.02 3 3 C2.01 2.67 1.02 2.34 0 2 C0 1.34 0 0.68 0 0 Z " fill="#E15A52" transform="translate(204,74)"/>
<path d="M0 0 C2 0 2 0 3.5078125 1.40625 C9.19143695 8.76475895 9.11854197 16.16799259 8 25 C5.64411936 35.09459161 -3.74034648 42.18240927 -11 49 C-11.66 48.01 -12.32 47.02 -13 46 C-12.67 45.34 -12.34 44.68 -12 44 C-11.01 44.33 -10.02 44.66 -9 45 C-8.67 43.68 -8.34 42.36 -8 41 C-7.01 41 -6.02 41 -5 41 C-5 39.68 -5 38.36 -5 37 C-4.01 37 -3.02 37 -2 37 C-2 36.01 -2 35.02 -2 34 C-3.65 34 -5.3 34 -7 34 C-5.35830472 31.97945196 -3.69088222 29.97956942 -2 28 C-1.67 28 -1.34 28 -1 28 C-1 29.65 -1 31.3 -1 33 C-0.34 33 0.32 33 1 33 C1 32.34 1 31.68 1 31 C1.99 31 2.98 31 4 31 C4.2165625 30.1028125 4.2165625 30.1028125 4.4375 29.1875 C4.8872439 27.43849596 5.42892341 25.71322977 6 24 C6.77424332 13.9949968 6.77424332 13.9949968 3 5 C2.01834406 3.98198643 1.02408568 2.9753197 0 2 C0 1.34 0 0.68 0 0 Z " fill="#DD5850" transform="translate(209,128)"/>
<path d="M0 0 C2.375 0.1875 2.375 0.1875 5 1 C8.17444466 6.96968945 8.13252195 14.97398268 6.32421875 21.40234375 C5.5 23.3125 5.5 23.3125 4 26 C3.01 26 2.02 26 1 26 C1 26.66 1 27.32 1 28 C0.34 28 -0.32 28 -1 28 C-1 26.35 -1 24.7 -1 23 C-0.34 23 0.32 23 1 23 C1 22.01 1 21.02 1 20 C1.66 20 2.32 20 3 20 C2.67 14.72 2.34 9.44 2 4 C1.34 4 0.68 4 0 4 C0 2.68 0 1.36 0 0 Z " fill="#F53C2E" transform="translate(209,133)"/>
<path d="M0 0 C0 0.99 0 1.98 0 3 C-7.59 2.34 -15.18 1.68 -23 1 C-23.33 1.66 -23.66 2.32 -24 3 C-24.66 2.67 -25.32 2.34 -26 2 C-26 1.01 -26 0.02 -26 -1 C-25.01 -1 -24.02 -1 -23 -1 C-23 -1.66 -23 -2.32 -23 -3 C-14.54726519 -5.42917379 -7.45129307 -4.49889393 0 0 Z " fill="#F53D2D" transform="translate(155,76)"/>
<path d="M0 0 C0 0.99 0 1.98 0 3 C-0.99 3 -1.98 3 -3 3 C-3 4.32 -3 5.64 -3 7 C-3.99 7.33 -4.98 7.66 -6 8 C-6.33 8.99 -6.66 9.98 -7 11 C-8.32 10.67 -9.64 10.34 -11 10 C-10.125 6.125 -10.125 6.125 -9 5 C-13.455 4.01 -13.455 4.01 -18 3 C-18 2.67 -18 2.34 -18 2 C-11.93184478 0.77100654 -6.20104812 -0.27560214 0 0 Z M-13 10 C-12.34 10 -11.68 10 -11 10 C-10.67 11.98 -10.34 13.96 -10 16 C-10.99 16.66 -11.98 17.32 -13 18 C-14.125 12.25 -14.125 12.25 -13 10 Z " fill="#F44033" transform="translate(207,162)"/>
<path d="M0 0 C0.74958984 0.05220703 1.49917969 0.10441406 2.27148438 0.15820312 C4.11887082 0.28763784 5.96574371 0.42436518 7.8125 0.5625 C7.8125 1.2225 7.8125 1.8825 7.8125 2.5625 C8.39 2.645 8.9675 2.7275 9.5625 2.8125 C12.52638479 3.8004616 13.91341302 5.10072058 15.8125 7.5625 C15.5625 9.8125 15.5625 9.8125 14.8125 11.5625 C13.1625 10.9025 11.5125 10.2425 9.8125 9.5625 C9.8125 8.9025 9.8125 8.2425 9.8125 7.5625 C9.1525 7.5625 8.4925 7.5625 7.8125 7.5625 C7.8125 6.5725 7.8125 5.5825 7.8125 4.5625 C1.2125 3.9025 -5.3875 3.2425 -12.1875 2.5625 C-9.91174871 -1.98900257 -4.32262849 -0.32844426 0 0 Z " fill="#F53D2E" transform="translate(196.1875,73.4375)"/>
<path d="M0 0 C0.99 0 1.98 0 3 0 C-0.30938134 7.34168579 -6.9445592 12.4122333 -14 16 C-21.2267295 18.34868709 -29.25901532 17.39846323 -36 14 C-36.66 13.01 -37.32 12.02 -38 11 C-35.6568787 11.25561323 -33.32156597 11.59270772 -31 12 C-30.67 12.66 -30.34 13.32 -30 14 C-27.60293877 14.10854617 -25.21084162 14.18753157 -22.8125 14.25 C-22.13896484 14.28351563 -21.46542969 14.31703125 -20.77148438 14.3515625 C-17.10958025 14.42301429 -15.17849378 14.11534178 -12.07421875 12.109375 C-9.9592031 10.17527684 -9.9592031 10.17527684 -9 8 C-8.01 8 -7.02 8 -6 8 C-6 7.34 -6 6.68 -6 6 C-3.8614515 3.8614515 -2.86724686 3.57344937 0 3 C0 2.01 0 1.02 0 0 Z " fill="#DF655E" transform="translate(165,205)"/>
<path d="M0 0 C0.33 1.32 0.66 2.64 1 4 C0.34 4 -0.32 4 -1 4 C-1 5.32 -1 6.64 -1 8 C-0.67 7.34 -0.34 6.68 0 6 C1.32 6.33 2.64 6.66 4 7 C1.61042731 10.24299151 -0.2047869 12.50902342 -4 14 C-4 12.35 -4 10.7 -4 9 C-4.56509277 9.00523682 -5.13018555 9.01047363 -5.71240234 9.01586914 C-8.2665903 9.03662422 -10.82076053 9.0496554 -13.375 9.0625 C-14.26445312 9.07087891 -15.15390625 9.07925781 -16.0703125 9.08789062 C-17.34648437 9.09272461 -17.34648437 9.09272461 -18.6484375 9.09765625 C-19.82672119 9.10551147 -19.82672119 9.10551147 -21.02880859 9.11352539 C-23 9 -23 9 -25 8 C-24.67 7.01 -24.34 6.02 -24 5 C-23.360625 5.33 -22.72125 5.66 -22.0625 6 C-17.37353495 7.53109063 -12.65342742 8.03585724 -7.96875 6.20703125 C-4.94265016 4.53370062 -2.24510242 2.64129697 0 0 Z " fill="#EC4134" transform="translate(207,106)"/>
<path d="M0 0 C4.00521387 2.88747977 7.46370991 6.48991981 9.6875 10.9375 C9.75746014 12.64452735 9.77190154 14.35418003 9.75 16.0625 C9.74097656 16.97257812 9.73195312 17.88265625 9.72265625 18.8203125 C9.71105469 19.51898438 9.69945312 20.21765625 9.6875 20.9375 C9.3575 20.9375 9.0275 20.9375 8.6875 20.9375 C8.6875 18.2975 8.6875 15.6575 8.6875 12.9375 C8.0275 12.9375 7.3675 12.9375 6.6875 12.9375 C6.419375 11.803125 6.15125 10.66875 5.875 9.5 C5.483125 8.324375 5.09125 7.14875 4.6875 5.9375 C3.6975 5.6075 2.7075 5.2775 1.6875 4.9375 C1.3575 4.2775 1.0275 3.6175 0.6875 2.9375 C-0.63553717 2.5653958 -1.96987935 2.23119827 -3.3125 1.9375 C-3.6425 1.6075 -3.9725 1.2775 -4.3125 0.9375 C-9.50131984 0.30962418 -9.50131984 0.30962418 -13.9375 2.3125 C-14.39125 2.84875 -14.845 3.385 -15.3125 3.9375 C-17.3125 4.60416667 -19.3125 5.27083333 -21.3125 5.9375 C-23.14939476 7.43636871 -23.14939476 7.43636871 -24.3125 8.9375 C-23.45636159 5.19189446 -21.91900863 3.30373828 -18.875 1.125 C-12.8517262 -2.35291948 -6.4877457 -2.08097504 0 0 Z " fill="#FBD9D5" transform="translate(150.3125,79.0625)"/>
<path d="M0 0 C6.6 0 13.2 0 20 0 C18.68 0.33 17.36 0.66 16 1 C16 2.65 16 4.3 16 6 C13.03 6 10.06 6 7 6 C7 5.01 7 4.02 7 3 C5.35 3 3.7 3 2 3 C2 3.99 2 4.98 2 6 C1.34 6 0.68 6 0 6 C0 4.02 0 2.04 0 0 Z " fill="#121212" transform="translate(264,200)"/>
<path d="M0 0 C4 0 4 0 6.125 1.75 C10.02328507 6.42794208 10.36469642 10.37831419 10.375 16.375 C10.39949219 17.1175 10.42398438 17.86 10.44921875 18.625 C10.47713395 23.89166704 9.42090527 26.79553542 6 31 C3.59560145 33.32683731 2.60948855 33.95844396 -0.75 34.1875 C-1.86375 34.0946875 -1.86375 34.0946875 -3 34 C-2.2575 33.443125 -1.515 32.88625 -0.75 32.3125 C3.25179469 28.94735447 7.67148857 24.64719091 8.3359375 19.29296875 C8.43641945 11.30465367 7.31633503 7.50057587 1.75 1.625 C1.1725 1.08875 0.595 0.5525 0 0 Z " fill="#DB5A54" transform="translate(151,130)"/>
<path d="M0 0 C1.32 0 2.64 0 4 0 C4 0.99 4 1.98 4 3 C4.99 3 5.98 3 7 3 C7 3.99 7 4.98 7 6 C6.01 6 5.02 6 4 6 C4 8.31 4 10.62 4 13 C4.66 13 5.32 13 6 13 C6 13.66 6 14.32 6 15 C4.33388095 15.042721 2.66617115 15.04063832 1 15 C0 14 0 14 -0.09765625 12.15234375 C-0.06510417 10.1015625 -0.03255208 8.05078125 0 6 C-0.66 6 -1.32 6 -2 6 C-2 5.34 -2 4.68 -2 4 C-1.34 4 -0.68 4 0 4 C0 2.68 0 1.36 0 0 Z " fill="#C0C0C0" transform="translate(267,203)"/>
<path d="M0 0 C0.66 0 1.32 0 2 0 C-0.66094944 6.26023369 -6.72672461 11.35630946 -12.9375 14 C-17.48093582 15.41412159 -22.29544262 15.6434297 -27 15 C-27.99 14.34 -28.98 13.68 -30 13 C-25.05 13 -20.1 13 -15 13 C-15 12.34 -15 11.68 -15 11 C-12.69 10.34 -10.38 9.68 -8 9 C-7.67 7.68 -7.34 6.36 -7 5 C-7 5.66 -7 6.32 -7 7 C-6.34 7 -5.68 7 -5 7 C-5.33 5.68 -5.66 4.36 -6 3 C-4.68 3.33 -3.36 3.66 -2 4 C-2 3.34 -2 2.68 -2 2 C-1.34 2 -0.68 2 0 2 C0 1.34 0 0.68 0 0 Z " fill="#DD584D" transform="translate(113,207)"/>
<path d="M0 0 C0.66 0.66 1.32 1.32 2 2 C1.34 2 0.68 2 0 2 C0.103125 2.763125 0.20625 3.52625 0.3125 4.3125 C0.209375 5.199375 0.10625 6.08625 0 7 C-2.375 8.875 -2.375 8.875 -5 10 C-5.66 9.67 -6.32 9.34 -7 9 C-5.68 7.35 -4.36 5.7 -3 4 C-3.60328125 4.51691406 -4.2065625 5.03382813 -4.828125 5.56640625 C-5.62734375 6.22511719 -6.4265625 6.88382813 -7.25 7.5625 C-8.43335937 8.55443359 -8.43335937 8.55443359 -9.640625 9.56640625 C-12 11 -12 11 -14.125 10.8359375 C-16.82455386 9.63238641 -18.83023961 7.98894703 -21 6 C-21 5.34 -21 4.68 -21 4 C-20.01 4 -19.02 4 -18 4 C-17.67 4.99 -17.34 5.98 -17 7 C-14.69 7.33 -12.38 7.66 -10 8 C-10 7.34 -10 6.68 -10 6 C-7.09840934 2.4288115 -4.39683488 1.19913678 0 0 Z " fill="#E64B40" transform="translate(93,157)"/>
<path d="M0 0 C0.66 0.33 1.32 0.66 2 1 C-3.28 6.28 -8.56 11.56 -14 17 C-15.35015859 12.94952424 -14.62084998 10.2079832 -14 6 C-12.91138672 6.35384766 -12.91138672 6.35384766 -11.80078125 6.71484375 C-8.93359569 7.28448406 -8.93359569 7.28448406 -6.54296875 5.56640625 C-5.76566406 4.90511719 -4.98835938 4.24382812 -4.1875 3.5625 C-3.39730469 2.90378906 -2.60710937 2.24507812 -1.79296875 1.56640625 C-1.20128906 1.04949219 -0.60960938 0.53257812 0 0 Z " fill="#F8E5DF" transform="translate(90,160)"/>
<path d="M0 0 C0.33 1.32 0.66 2.64 1 4 C0.01 4.33 -0.98 4.66 -2 5 C-2.33 5.99 -2.66 6.98 -3 8 C-5.4375 10.6875 -5.4375 10.6875 -8 13 C-8.66 13 -9.32 13 -10 13 C-10.2475 13.61875 -10.495 14.2375 -10.75 14.875 C-12.20628639 17.35068687 -13.37812506 17.95125002 -16 19 C-12.57875825 11.47326814 -5.84955582 5.68953757 0 0 Z " fill="#DD5C55" transform="translate(85,116)"/>
<path d="M0 0 C4.75 0.875 4.75 0.875 7 2 C7 2.66 7 3.32 7 4 C7.66 4.33 8.32 4.66 9 5 C8.01 5.33 7.02 5.66 6 6 C5.67 5.67 5.34 5.34 5 5 C4.01 5.495 4.01 5.495 3 6 C3.165 6.515625 3.33 7.03125 3.5 7.5625 C4.57426183 12.79952642 4.33791086 17.17805885 2 22 C0.57485018 17.44620096 0.97499538 12.91118644 1.0625 8.19140625 C1.00605783 5.30932798 0.66868036 2.79487492 0 0 Z " fill="#E94C43" transform="translate(158,82)"/>
<path d="M0 0 C0.33 1.32 0.66 2.64 1 4 C0.0925 4.53625 -0.815 5.0725 -1.75 5.625 C-5.12143757 7.83551803 -6.84224544 10.60924284 -9 14 C-9.66 14 -10.32 14 -11 14 C-11.33 14.99 -11.66 15.98 -12 17 C-13.32 16.67 -14.64 16.34 -16 16 C-10.72 10.72 -5.44 5.44 0 0 Z " fill="#DF5B55" transform="translate(102,99)"/>
<path d="M0 0 C0.66 0.33 1.32 0.66 2 1 C2.74662729 18.27612591 2.74662729 18.27612591 -2 24 C-2.66 24.33 -3.32 24.66 -4 25 C-3.55959295 22.43095885 -3.08727852 20.19092176 -2 17.8125 C-0.74707281 14.28864226 -0.54493397 10.88710422 -0.375 7.1875 C-0.33632812 6.49462891 -0.29765625 5.80175781 -0.2578125 5.08789062 C-0.16426432 3.39232985 -0.08107636 1.69620288 0 0 Z " fill="#DD514A" transform="translate(215,87)"/>
<path d="M0 0 C1.32 0 2.64 0 4 0 C4 2.97 4 5.94 4 9 C4.99 9 5.98 9 7 9 C7 6.36 7 3.72 7 1 C8.32 0.67 9.64 0.34 11 0 C11 2.97 11 5.94 11 9 C6.375 11.125 6.375 11.125 3 10 C3 7.03 3 4.06 3 1 C2.01 0.67 1.02 0.34 0 0 Z " fill="#3B3B3B" transform="translate(280,209)"/>
<path d="M0 0 C2.80990423 1.10693197 5.49251082 2.25108395 8.1875 3.625 C15.29292091 6.66797374 22.85295952 5.11764162 30 3 C30 3.66 30 4.32 30 5 C26.12712509 7.58876519 22.04190094 7.29590334 17.5625 7.25 C16.81162109 7.25773438 16.06074219 7.26546875 15.28710938 7.2734375 C11.07497076 7.25861907 7.84496165 6.92630285 4 5 C4 4.34 4 3.68 4 3 C2.68 2.67 1.36 2.34 0 2 C0 1.34 0 0.68 0 0 Z " fill="#FDE2DF" transform="translate(74,216)"/>
<path d="M0 0 C0.33 0.66 0.66 1.32 1 2 C0.67 2.66 0.34 3.32 0 4 C-1.12216359 11.4383415 1.29447884 16.66091202 5 23 C4.34 23 3.68 23 3 23 C3 22.34 3 21.68 3 21 C2.34 21 1.68 21 1 21 C0.67 19.68 0.34 18.36 0 17 C-0.66 17 -1.32 17 -2 17 C-3.28282363 14.43435275 -3.20391953 12.48966931 -3.25 9.625 C-3.27578125 8.66851562 -3.3015625 7.71203125 -3.328125 6.7265625 C-2.95439914 3.62107853 -2.06626291 2.29463934 0 0 Z " fill="#DE524A" transform="translate(175,87)"/>
<path d="M0 0 C0.33 0 0.66 0 1 0 C1 6.6 1 13.2 1 20 C0.34 19.34 -0.32 18.68 -1 18 C-3.58354218 17.83312552 -3.58354218 17.83312552 -6 18 C-5.01 17.67 -4.02 17.34 -3 17 C-3 13.37 -3 9.74 -3 6 C-2.34 6.66 -1.68 7.32 -1 8 C-0.67 5.36 -0.34 2.72 0 0 Z " fill="#616161" transform="translate(297,201)"/>
<path d="M0 0 C0 3 0 3 -2 6 C-2 6.66 -2 7.32 -2 8 C-8.75 12 -8.75 12 -11 12 C-11.309375 12.78375 -11.61875 13.5675 -11.9375 14.375 C-13 17 -13 17 -14 19 C-14.66 19 -15.32 19 -16 19 C-14.60560003 14.56327282 -12.30628857 12.09374145 -9 9 C-7.39179093 7.39988595 -5.78788773 5.79543673 -4.1875 4.1875 C-2.09375 2.09375 -2.09375 2.09375 0 0 Z " fill="#DB5149" transform="translate(85,167)"/>
<path d="M0 0 C0.33 0 0.66 0 1 0 C0.96519531 1.22976562 0.93039063 2.45953125 0.89453125 3.7265625 C0.86637955 5.35936127 0.83908087 6.9921749 0.8125 8.625 C0.78736328 9.43324219 0.76222656 10.24148437 0.73632812 11.07421875 C0.67320864 16.25001655 1.41360494 19.394091 4 24 C3.67 24.66 3.34 25.32 3 26 C-1.32211666 18.74999787 -2.59119332 13.51043412 -2 5 C-1 1.875 -1 1.875 0 0 Z " fill="#D9625B" transform="translate(68,135)"/>
<path d="M0 0 C0.33 0.99 0.66 1.98 1 3 C0.38125 2.835 -0.2375 2.67 -0.875 2.5 C-7.86943868 1.38088981 -13.82152042 1.09780237 -20 5 C-19.375 3.125 -19.375 3.125 -18 1 C-12.42522387 -1.71940299 -5.8500081 -1.9500027 0 0 Z " fill="#DE5249" transform="translate(150,127)"/>
<path d="M0 0 C2.475 0.495 2.475 0.495 5 1 C5 4.63 5 8.26 5 12 C4.01 12 3.02 12 2 12 C1.93941406 11.38511719 1.87882812 10.77023438 1.81640625 10.13671875 C1.73261719 9.32847656 1.64882813 8.52023438 1.5625 7.6875 C1.48128906 6.88699219 1.40007812 6.08648437 1.31640625 5.26171875 C1.04734307 2.83912821 1.04734307 2.83912821 0 0 Z " fill="#DEDEDE" transform="translate(289,206)"/>
<path d="M0 0 C1.65 0 3.3 0 5 0 C1.0580583 4.88049925 -3.11950075 9.0580583 -8 13 C-8 11.68 -8 10.36 -8 9 C-7.01 9 -6.02 9 -5 9 C-4.67 7.35 -4.34 5.7 -4 4 C-2.68 4 -1.36 4 0 4 C0 2.68 0 1.36 0 0 Z " fill="#E35850" transform="translate(181,188)"/>
<path d="M0 0 C6.19887485 -0.37952295 10.4477112 0.1647887 16 3 C16 3.33 16 3.66 16 4 C10.555 4.495 10.555 4.495 5 5 C5 4.01 5 3.02 5 2 C3.35 1.67 1.7 1.34 0 1 C0 0.67 0 0.34 0 0 Z " fill="#F9E1DE" transform="translate(187,128)"/>
<path d="M0 0 C6.93 0.495 6.93 0.495 14 1 C13.67 1.99 13.34 2.98 13 4 C9.37 4 5.74 4 2 4 C1.34 2.68 0.68 1.36 0 0 Z " fill="#E64D43" transform="translate(134,163)"/>
<path d="M0 0 C0 3.66184524 -0.919642 5.02806 -3 8 C-5.3743264 10.29518219 -6.42774033 10.96098229 -9.75 11.1875 C-10.4925 11.125625 -11.235 11.06375 -12 11 C-11.2575 10.443125 -10.515 9.88625 -9.75 9.3125 C-7.07731586 7.06501561 -5.15468037 4.72926181 -3 2 C-2.01 1.34 -1.02 0.68 0 0 Z " fill="#DF514A" transform="translate(160,153)"/>
<path d="M0 0 C0.66 0 1.32 0 2 0 C2.12375 0.804375 2.2475 1.60875 2.375 2.4375 C2.684375 3.7059375 2.684375 3.7059375 3 5 C3.66 5.33 4.32 5.66 5 6 C5 6.99 5 7.98 5 9 C5.66 9 6.32 9 7 9 C6.67 9.99 6.34 10.98 6 12 C6 11.34 6 10.68 6 10 C5.443125 9.731875 4.88625 9.46375 4.3125 9.1875 C1.80287477 7.89877353 -0.59334236 6.47073522 -3 5 C-1.125 1.125 -1.125 1.125 0 0 Z " fill="#FBD6D3" transform="translate(205,118)"/>
<path d="M0 0 C3.27734162 2.4148833 5.5604433 4.16118213 7 8 C7.1953125 11.015625 7.1953125 11.015625 7.125 14.25 C7.10695312 15.32765625 7.08890625 16.4053125 7.0703125 17.515625 C7.04710937 18.33546875 7.02390625 19.1553125 7 20 C6.67 20 6.34 20 6 20 C5.93941406 19.32453125 5.87882813 18.6490625 5.81640625 17.953125 C5.73261719 17.06109375 5.64882812 16.1690625 5.5625 15.25 C5.48128906 14.36828125 5.40007812 13.4865625 5.31640625 12.578125 C4.92668305 9.22347104 4.92668305 9.22347104 4 6 C3.01 5.67 2.02 5.34 1 5 C0.67 3.35 0.34 1.7 0 0 Z " fill="#F8CDC9" transform="translate(153,132)"/>
<path d="M0 0 C0.33 0 0.66 0 1 0 C0.9375 3.3125 0.9375 3.3125 0 7 C-5.46682915 10.30072703 -5.46682915 10.30072703 -9.23046875 9.5625 C-9.81441406 9.376875 -10.39835938 9.19125 -11 9 C-10.37351563 8.60167969 -9.74703125 8.20335938 -9.1015625 7.79296875 C-8.28429687 7.26316406 -7.46703125 6.73335938 -6.625 6.1875 C-5.81289062 5.66542969 -5.00078125 5.14335938 -4.1640625 4.60546875 C-1.76649759 3.01562803 -1.76649759 3.01562803 0 0 Z " fill="#E1514A" transform="translate(158,104)"/>
<path d="M0 0 C0.66 0.33 1.32 0.66 2 1 C1.505 2.175625 1.01 3.35125 0.5 4.5625 C-1.60184773 10.17403686 -1.4039207 15.20882713 0 21 C-2.23546499 19.23640097 -2.94479642 18.37811483 -3.36328125 15.51171875 C-3.14084507 3.14084507 -3.14084507 3.14084507 0 0 Z " fill="#DA5951" transform="translate(176,134)"/>
<path d="M0 0 C1.3034777 2.60695541 0.9243237 4.34988757 0.75 7.25 C0.68646417 11.27923024 0.85063915 13.58417563 3.5 16.6875 C4.325 17.450625 5.15 18.21375 6 19 C5.01 19.33 4.02 19.66 3 20 C3 19.34 3 18.68 3 18 C2.01 18 1.02 18 0 18 C-1.11520565 14.4154104 -1.13337312 11.05109703 -1.125 7.3125 C-1.12757813 6.15363281 -1.13015625 4.99476563 -1.1328125 3.80078125 C-1 1 -1 1 0 0 Z " fill="#E9443C" transform="translate(173,139)"/>
<path d="M0 0 C0.886875 0.78375 1.77375 1.5675 2.6875 2.375 C7.82456112 6.12165821 13.832659 6.3786288 20 7 C20 7.33 20 7.66 20 8 C13.31961887 8.32616689 7.8095984 8.58464582 2 5 C0.5625 2.3125 0.5625 2.3125 0 0 Z " fill="#D7564C" transform="translate(127,107)"/>
<path d="M0 0 C0 3.72055546 -0.81297638 5.01106771 -3 8 C-6.1875 10.3125 -6.1875 10.3125 -9 12 C-9.66 11.67 -10.32 11.34 -11 11 C-7.37 7.37 -3.74 3.74 0 0 Z " fill="#DE6760" transform="translate(114,87)"/>
<path d="M0 0 C0.33 0 0.66 0 1 0 C1.03738281 0.66386719 1.07476562 1.32773438 1.11328125 2.01171875 C1.58400217 8.33414677 2.39102818 12.39102818 7 17 C7 17.99 7 18.98 7 20 C6.34 20 5.68 20 5 20 C0.8115714 15.68464932 -0.3335398 11.41919625 -0.3125 5.5 C-0.23303224 3.66543011 -0.13733605 1.83114735 0 0 Z " fill="#FAD2CF" transform="translate(124,140)"/>
<path d="M0 0 C0.33 0 0.66 0 1 0 C1.33 2.64 1.66 5.28 2 8 C3.98 8.66 5.96 9.32 8 10 C7.67 10.66 7.34 11.32 7 12 C4.125 12.125 4.125 12.125 1 12 C0.34 11.34 -0.32 10.68 -1 10 C-0.9765625 7.6171875 -0.9765625 7.6171875 -0.625 4.875 C-0.51414062 3.96492187 -0.40328125 3.05484375 -0.2890625 2.1171875 C-0.19367188 1.41851562 -0.09828125 0.71984375 0 0 Z " fill="#1D1D1D" transform="translate(266,209)"/>
<path d="M0 0 C1.32 0 2.64 0 4 0 C4 2.64 4 5.28 4 8 C2.68 7.67 1.36 7.34 0 7 C0 4.69 0 2.38 0 0 Z " fill="#1D1D1D" transform="translate(271,209)"/>
<path d="M0 0 C1.32 0.66 2.64 1.32 4 2 C3.04258894 3.60471728 2.08403595 5.20875329 1.125 6.8125 C0.59132813 7.70582031 0.05765625 8.59914062 -0.4921875 9.51953125 C-1.61883092 11.37294724 -2.79686611 13.19529917 -4 15 C-3.67 12.36 -3.34 9.72 -3 7 C-2.34 7 -1.68 7 -1 7 C-1 6.01 -1 5.02 -1 4 C-0.34 4 0.32 4 1 4 C0.67 2.68 0.34 1.36 0 0 Z " fill="#FDDEDD" transform="translate(70,176)"/>
<path d="M0 0 C2.12493141 -0.02693575 4.24995912 -0.04636628 6.375 -0.0625 C7.55835938 -0.07410156 8.74171875 -0.08570312 9.9609375 -0.09765625 C13 0 13 0 15 1 C15 1.99 15 2.98 15 4 C15.66 4 16.32 4 17 4 C16.67 4.66 16.34 5.32 16 6 C14.5459375 5.0409375 14.5459375 5.0409375 13.0625 4.0625 C8.8446362 1.61648472 4.80480758 1.21790511 0 1 C0 0.67 0 0.34 0 0 Z " fill="#E1635A" transform="translate(189,77)"/>
<path d="M0 0 C0 3 0 3 -1.26953125 4.51953125 C-3.0183201 6.0156734 -4.80061478 7.3702405 -6.6875 8.6875 C-7.62142578 9.34298828 -7.62142578 9.34298828 -8.57421875 10.01171875 C-9.04472656 10.33785156 -9.51523438 10.66398438 -10 11 C-10 10.01 -10 9.02 -10 8 C-9.34 8 -8.68 8 -8 8 C-7.938125 7.38125 -7.87625 6.7625 -7.8125 6.125 C-7 4 -7 4 -4.5625 2.875 C-3.716875 2.58625 -2.87125 2.2975 -2 2 C-1.34 1.34 -0.68 0.68 0 0 Z " fill="#E75C4F" transform="translate(125,197)"/>
<path d="M0 0 C0.66 0.33 1.32 0.66 2 1 C0.8125 3.4375 0.8125 3.4375 -1 6 C-3.6875 6.8125 -3.6875 6.8125 -6 7 C-6.33 7.99 -6.66 8.98 -7 10 C-7.33 9.34 -7.66 8.68 -8 8 C-3.375 2.25 -3.375 2.25 0 0 Z " fill="#FACECC" transform="translate(184,129)"/>
<path d="M0 0 C2.90067867 0.41438267 4.83286757 0.89158978 7.3125 2.5 C10.920221 4.51361172 13.89774826 4.65235155 18 5 C18 5.33 18 5.66 18 6 C11.45336558 6.54555287 6.47621253 5.8277608 1 2 C0.67 1.34 0.34 0.68 0 0 Z " fill="#FACCC9" transform="translate(179,108)"/>
<path d="M0 0 C0 3 0 3 -1.625 5.6875 C-4 8 -4 8 -7.25 8.3125 C-8.1575 8.209375 -9.065 8.10625 -10 8 C-6.66666667 5.33333333 -3.33333333 2.66666667 0 0 Z " fill="#FBE2DF" transform="translate(161,213)"/>
<path d="M0 0 C2.3431213 0.25561323 4.67843403 0.59270772 7 1 C7.33 1.66 7.66 2.32 8 3 C10.12576782 3.46651207 10.12576782 3.46651207 12.5625 3.625 C13.38878906 3.69976562 14.21507812 3.77453125 15.06640625 3.8515625 C15.70449219 3.90054688 16.34257812 3.94953125 17 4 C17 4.33 17 4.66 17 5 C10.93582051 5.3235827 6.2493273 5.49955154 1 2 C0.67 1.34 0.34 0.68 0 0 Z " fill="#D9544C" transform="translate(127,216)"/>
<path d="M0 0 C0 3.10551666 -0.5393715 4.35261084 -2 7 C-2.66 7 -3.32 7 -4 7 C-4.33 7.99 -4.66 8.98 -5 10 C-6.65 10.33 -8.3 10.66 -10 11 C-6.79239749 7.19364503 -3.59253891 3.45436433 0 0 Z " fill="#F8BFB9" transform="translate(121,202)"/>
<path d="M0 0 C0.66 0 1.32 0 2 0 C2 0.66 2 1.32 2 2 C2.66 2.33 3.32 2.66 4 3 C3.67 3.99 3.34 4.98 3 6 C2.01 6 1.02 6 0 6 C0 6.66 0 7.32 0 8 C-0.66 8 -1.32 8 -2 8 C-2 6.35 -2 4.7 -2 3 C-1.34 3 -0.68 3 0 3 C0 2.01 0 1.02 0 0 Z " fill="#F23D30" transform="translate(210,153)"/>
<path d="M0 0 C1.32 0.33 2.64 0.66 4 1 C5.00926479 5.15626368 5.10239579 9.04365094 5.0625 13.3125 C5.05347656 14.56675781 5.04445312 15.82101563 5.03515625 17.11328125 C5.01775391 18.54220703 5.01775391 18.54220703 5 20 C4.67 20 4.34 20 4 20 C3.96261719 19.14277344 3.92523438 18.28554687 3.88671875 17.40234375 C3.51561297 10.94801388 3.06490552 5.73004075 0 0 Z " fill="#F4BAB7" transform="translate(213,81)"/>
<path d="M0 0 C3.63 0 7.26 0 11 0 C11.33 0.99 11.66 1.98 12 3 C7.71 2.67 3.42 2.34 -1 2 C-0.67 1.34 -0.34 0.68 0 0 Z " fill="#E64239" transform="translate(137,75)"/>
<path d="M0 0 C2.9375 0.8125 2.9375 0.8125 6 2 C6.33 2.99 6.66 3.98 7 5 C7.66 5 8.32 5 9 5 C9.33 5.99 9.66 6.98 10 8 C5.56983933 6.60766379 3.08449737 4.43701135 0 1 C0 0.67 0 0.34 0 0 Z " fill="#DE5F57" transform="translate(72,212)"/>
<path d="M0 0 C0.66 0 1.32 0 2 0 C2.33 1.98 2.66 3.96 3 6 C3.61875 6.061875 4.2375 6.12375 4.875 6.1875 C7 7 7 7 8.25 9.5625 C8.4975 10.366875 8.745 11.17125 9 12 C5.18688695 10.5019913 3.27516449 8.37351976 1 5 C0.25 2.1875 0.25 2.1875 0 0 Z " fill="#FBD0CC" transform="translate(175,150)"/>
<path d="M0 0 C1.1446875 0.495 1.1446875 0.495 2.3125 1 C7.25174651 2.33945668 11.91463109 2.16287658 17 2 C16.67 2.66 16.34 3.32 16 4 C13.70839681 4.02692484 11.41670454 4.04636124 9.125 4.0625 C7.84882813 4.07410156 6.57265625 4.08570312 5.2578125 4.09765625 C2 4 2 4 0 3 C0 2.01 0 1.02 0 0 Z " fill="#DB534E" transform="translate(182,111)"/>
<path d="M0 0 C1.17046875 0.03609375 2.3409375 0.0721875 3.546875 0.109375 C4.43890625 0.15578125 5.3309375 0.2021875 6.25 0.25 C6.25 0.58 6.25 0.91 6.25 1.25 C5.693125 1.27578125 5.13625 1.3015625 4.5625 1.328125 C-1.43293548 1.77373169 -5.51741536 3.30072502 -10.75 6.25 C-10.75 4.25 -10.75 4.25 -9.171875 2.140625 C-5.96057655 -0.36625959 -4.02164704 -0.16086588 0 0 Z " fill="#DC6057" transform="translate(138.75,76.75)"/>
<path d="M0 0 C0.99 0.33 1.98 0.66 3 1 C0.36 3.64 -2.28 6.28 -5 9 C-5.66 8.01 -6.32 7.02 -7 6 C-5.90716423 4.96704564 -4.80029421 3.94892165 -3.6875 2.9375 C-3.07261719 2.36902344 -2.45773438 1.80054687 -1.82421875 1.21484375 C-0.92123047 0.61349609 -0.92123047 0.61349609 0 0 Z " fill="#FADDD6" transform="translate(174,75)"/>
<path d="M0 0 C0 1.32 0 2.64 0 4 C-0.99 4 -1.98 4 -3 4 C-3.33 4.66 -3.66 5.32 -4 6 C-4.99 6 -5.98 6 -7 6 C-4.84615385 0 -4.84615385 0 0 0 Z " fill="#F43B2E" transform="translate(183,75)"/>
<path d="M0 0 C0.33 1.32 0.66 2.64 1 4 C1.66 4 2.32 4 3 4 C3 6.31 3 8.62 3 11 C2.01 11 1.02 11 0 11 C0 7.37 0 3.74 0 0 Z " fill="#C3C3C3" transform="translate(278,162)"/>
<path d="M0 0 C0.33 1.32 0.66 2.64 1 4 C-1.31 5.65 -3.62 7.3 -6 9 C-6.66 8.67 -7.32 8.34 -8 8 C-5.36 5.36 -2.72 2.72 0 0 Z " fill="#DB665E" transform="translate(102,99)"/>
<path d="M0 0 C0.33 0 0.66 0 1 0 C1.99 4.62 2.98 9.24 4 14 C3.34 14 2.68 14 2 14 C2 13.34 2 12.68 2 12 C1.34 12 0.68 12 0 12 C0 8.04 0 4.08 0 0 Z " fill="#FBDAD5" transform="translate(65,144)"/>
<path d="M0 0 C0.33 1.32 0.66 2.64 1 4 C0.01 5.485 0.01 5.485 -1 7 C-3.625 7.1875 -3.625 7.1875 -6 7 C-4.02 4.69 -2.04 2.38 0 0 Z " fill="#F8D7CE" transform="translate(213,110)"/>
<path d="M0 0 C0.33 1.32 0.66 2.64 1 4 C-1.31 5.65 -3.62 7.3 -6 9 C-6.66 8.67 -7.32 8.34 -8 8 C-7.38125 7.7525 -6.7625 7.505 -6.125 7.25 C-3.61104784 5.77120461 -3.1465949 4.62078835 -2 2 C-1.34 1.34 -0.68 0.68 0 0 Z " fill="#E0645F" transform="translate(123,78)"/>
<path d="M0 0 C5.19209404 -0.21192221 9.126739 0.4087311 14 2 C14 2.33 14 2.66 14 3 C4.58997722 3.3690205 4.58997722 3.3690205 0 1 C0 0.67 0 0.34 0 0 Z " fill="#F9CECB" transform="translate(133,111)"/>
<path d="M0 0 C2.51236985 2.40313638 3.95013095 3.78319518 4.09765625 7.3828125 C4.08605469 8.28773437 4.07445312 9.19265625 4.0625 10.125 C4.05347656 11.03507812 4.04445312 11.94515625 4.03515625 12.8828125 C4.02355469 13.58148438 4.01195312 14.28015625 4 15 C3.67 15 3.34 15 3 15 C3 12.36 3 9.72 3 7 C2.34 7 1.68 7 1 7 C0.67 4.69 0.34 2.38 0 0 Z " fill="#F9CFCB" transform="translate(156,85)"/>
<path d="M0 0 C2.95929119 2.75520215 5.03681826 5.46627288 7 9 C2.25 7.125 2.25 7.125 0 6 C-0.6875 3.5 -0.6875 3.5 -1 1 C-0.67 0.67 -0.34 0.34 0 0 Z " fill="#FAE3DF" transform="translate(118,207)"/>
<path d="M0 0 C-1.17578125 1.51953125 -1.17578125 1.51953125 -3 3 C-5.48046875 3.07421875 -5.48046875 3.07421875 -8.1875 2.6875 C-9.53908203 2.50767578 -9.53908203 2.50767578 -10.91796875 2.32421875 C-11.94857422 2.16373047 -11.94857422 2.16373047 -13 2 C-13 1.67 -13 1.34 -13 1 C-11.20994059 0.63779734 -9.41787943 0.28547531 -7.625 -0.0625 C-6.12839844 -0.35833984 -6.12839844 -0.35833984 -4.6015625 -0.66015625 C-2 -1 -2 -1 0 0 Z " fill="#E06459" transform="translate(202,163)"/>
<path d="M0 0 C0.28875 0.639375 0.5775 1.27875 0.875 1.9375 C1.82823451 4.15206079 1.82823451 4.15206079 4 5 C4 5.66 4 6.32 4 7 C2.35 7 0.7 7 -1 7 C-1.04254356 5.00045254 -1.04080783 2.99958364 -1 1 C-0.67 0.67 -0.34 0.34 0 0 Z " fill="#EDEDED" transform="translate(269,211)"/>
<path d="M0 0 C0.33 0 0.66 0 1 0 C1.33 2.97 1.66 5.94 2 9 C1.01 9.33 0.02 9.66 -1 10 C-1.33 10.66 -1.66 11.32 -2 12 C-2.99 11.34 -3.98 10.68 -5 10 C-4.360625 9.835 -3.72125 9.67 -3.0625 9.5 C-0.83880759 8.218214 -0.83880759 8.218214 -0.51171875 6.0859375 C-0.2724022 4.06424845 -0.13106972 2.03158061 0 0 Z " fill="#3E3E3E" transform="translate(392,161)"/>
<path d="M0 0 C0.66 0.33 1.32 0.66 2 1 C-0.31 3.31 -2.62 5.62 -5 8 C-5.99 7.34 -6.98 6.68 -8 6 C-5.36 4.02 -2.72 2.04 0 0 Z " fill="#FCA9A3" transform="translate(90,160)"/>
<path d="M0 0 C0.33 1.32 0.66 2.64 1 4 C0.01 4 -0.98 4 -2 4 C-2.33 4.99 -2.66 5.98 -3 7 C-4.32 6.67 -5.64 6.34 -7 6 C-4.69 4.02 -2.38 2.04 0 0 Z " fill="#DF5D58" transform="translate(207,106)"/>
<path d="M0 0 C2.31 0.66 4.62 1.32 7 2 C6.34 3.32 5.68 4.64 5 6 C3.0625 5.25 3.0625 5.25 1 4 C0.25 1.875 0.25 1.875 0 0 Z " fill="#F0402D" transform="translate(71,208)"/>
<path d="M0 0 C3.93673644 1.31224548 6.22719294 2.91910327 9 6 C8.67 6.66 8.34 7.32 8 8 C7.236875 7.195625 6.47375 6.39125 5.6875 5.5625 C3.20569102 2.83200976 3.20569102 2.83200976 0 2 C0 1.34 0 0.68 0 0 Z " fill="#D76058" transform="translate(204,74)"/>
<path d="M0 0 C0.99 0 1.98 0 3 0 C3 0.99 3 1.98 3 3 C0.625 4.75 0.625 4.75 -2 6 C-2.66 5.67 -3.32 5.34 -4 5 C-2.1875 2.5 -2.1875 2.5 0 0 Z " fill="#D85144" transform="translate(156,213)"/>
<path d="M0 0 C0.99 0 1.98 0 3 0 C1.60667426 3.36720387 0.0210714 4.9859524 -3 7 C-3 6.01 -3 5.02 -3 4 C-2.34 4 -1.68 4 -1 4 C-0.67 2.68 -0.34 1.36 0 0 Z " fill="#DE5C56" transform="translate(189,181)"/>
<path d="M0 0 C0.99 1.32 1.98 2.64 3 4 C0.525 5.485 0.525 5.485 -2 7 C-2 5.02 -2 3.04 -2 1 C-1.34 0.67 -0.68 0.34 0 0 Z " fill="#1D1D1D" transform="translate(540,168)"/>
<path d="M0 0 C0.99 0 1.98 0 3 0 C3.33 0.99 3.66 1.98 4 3 C5.62332967 4.38576923 7.28724465 5.72641268 9 7 C5.13066838 6.42676569 2.84777943 4.61046448 0 2 C0 1.34 0 0.68 0 0 Z " fill="#D75656" transform="translate(72,161)"/>
<path d="M0 0 C2.125 0.375 2.125 0.375 4 1 C3.0409375 1.556875 3.0409375 1.556875 2.0625 2.125 C-0.63858072 4.58052793 -0.68407005 6.44578805 -1 10 C-1.33 10 -1.66 10 -2 10 C-2.1953125 3.9453125 -2.1953125 3.9453125 -2 2 C-1.34 1.34 -0.68 0.68 0 0 Z " fill="#B8B8B8" transform="translate(480,161)"/>
<path d="M0 0 C0.90105469 0.02707031 1.80210937 0.05414063 2.73046875 0.08203125 C3.76107422 0.13423828 3.76107422 0.13423828 4.8125 0.1875 C4.8125 0.5175 4.8125 0.8475 4.8125 1.1875 C2.9871875 1.4040625 2.9871875 1.4040625 1.125 1.625 C-2.01420377 2.01530953 -5.0950134 2.51101856 -8.1875 3.1875 C-5.67753317 0.01043235 -3.96125134 -0.15433447 0 0 Z " fill="#F8C6C1" transform="translate(141.1875,127.8125)"/>
<path d="M0 0 C1.32 0.33 2.64 0.66 4 1 C1.03 3.475 1.03 3.475 -2 6 C-2.33 5.01 -2.66 4.02 -3 3 C-2.34 3 -1.68 3 -1 3 C-0.67 2.01 -0.34 1.02 0 0 Z " fill="#FCEBE6" transform="translate(76,121)"/>
<path d="M0 0 C2.25 -0.25 2.25 -0.25 5 0 C7.3125 2 7.3125 2 9 4 C8.67 4.99 8.34 5.98 8 7 C8 6.34 8 5.68 8 5 C7.01 4.67 6.02 4.34 5 4 C4.67 3.34 4.34 2.68 4 2 C1.97536745 1.34786708 1.97536745 1.34786708 0 1 C0 0.67 0 0.34 0 0 Z " fill="#FCE4E0" transform="translate(147,80)"/>
<path d="M0 0 C0.66 0 1.32 0 2 0 C0.60667426 3.36720387 -0.9789286 4.9859524 -4 7 C-4 5.68 -4 4.36 -4 3 C-3.01 3 -2.02 3 -1 3 C-0.67 2.01 -0.34 1.02 0 0 Z " fill="#DE5D5A" transform="translate(177,194)"/>
<path d="M0 0 C1.1446875 0.2475 1.1446875 0.2475 2.3125 0.5 C5.03596236 1.09145396 5.03596236 1.09145396 8 1 C7.34 2.32 6.68 3.64 6 5 C5.67 4.34 5.34 3.68 5 3 C3.35 3 1.7 3 0 3 C0 2.01 0 1.02 0 0 Z " fill="#F8C8C5" transform="translate(76,166)"/>
<path d="M0 0 C0.66 0.33 1.32 0.66 2 1 C0.02 3.97 0.02 3.97 -2 7 C-2.66 6.01 -3.32 5.02 -4 4 C-3.34 4 -2.68 4 -2 4 C-2 3.01 -2 2.02 -2 1 C-1.34 0.67 -0.68 0.34 0 0 Z " fill="#FCE4DE" transform="translate(157,152)"/>
<path d="M0 0 C2.125 0.375 2.125 0.375 4 1 C2.71937515 2.7074998 1.38232443 4.37373596 0 6 C-0.66 6 -1.32 6 -2 6 C-2 2 -2 2 0 0 Z " fill="#E14F43" transform="translate(207,112)"/>
<path d="M0 0 C0.33 1.32 0.66 2.64 1 4 C0.34 4 -0.32 4 -1 4 C-1 4.66 -1 5.32 -1 6 C-2.32 5.67 -3.64 5.34 -5 5 C-3.35 3.35 -1.7 1.7 0 0 Z " fill="#DE514B" transform="translate(172,80)"/>
<path d="M0 0 C0.66 0.33 1.32 0.66 2 1 C-3.14285714 6.57142857 -3.14285714 6.57142857 -7 7 C-4.78071806 4.09197539 -3.07030857 2.04687238 0 0 Z " fill="#D35D55" transform="translate(180,73)"/>
</svg>
